# MagicaVoxel @ Ephtracy

# group
o mouth-ehh

# material
mtllib bacon-8-mouth-ehh.mtl
usemtl palette

# normals
vn -1 0 0
vn 1 0 0
vn 0 0 1
vn 0 0 -1
vn 0 -1 0
vn 0 1 0

# texcoords
vt 0.869141 0.5
vt 0.966797 0.5
vt 0.994141 0.5

# verts
v -0.25 1.4 3.72529e-009
v -0.25 1.4 -0.1
v -0.25 1.65 3.72529e-009
v -0.25 1.65 -0.1
v -0.15 1.45 3.72529e-009
v -0.15 1.45 -0.05
v -0.15 1.5 3.72529e-009
v -0.15 1.5 -0.05
v -0.15 1.55 3.72529e-009
v -0.15 1.55 -0.05
v -0.15 1.6 3.72529e-009
v -0.15 1.6 -0.05
v 0.25 1.45 3.72529e-009
v 0.25 1.45 -0.05
v 0.25 1.6 3.72529e-009
v 0.25 1.6 -0.05
v -0.2 1.45 3.72529e-009
v -0.2 1.45 -0.05
v -0.2 1.6 3.72529e-009
v -0.2 1.6 -0.05
v 0.2 1.45 3.72529e-009
v 0.2 1.45 -0.05
v 0.2 1.5 3.72529e-009
v 0.2 1.5 -0.05
v 0.2 1.55 3.72529e-009
v 0.2 1.55 -0.05
v 0.2 1.6 3.72529e-009
v 0.2 1.6 -0.05
v 0.3 1.4 3.72529e-009
v 0.3 1.4 -0.1
v 0.3 1.65 3.72529e-009
v 0.3 1.65 -0.1
v -0.25 1.4 3.72529e-009
v -0.25 1.65 3.72529e-009
v -0.2 1.45 3.72529e-009
v -0.2 1.6 3.72529e-009
v -0.15 1.45 3.72529e-009
v -0.15 1.5 3.72529e-009
v -0.15 1.55 3.72529e-009
v -0.15 1.6 3.72529e-009
v 0.2 1.45 3.72529e-009
v 0.2 1.5 3.72529e-009
v 0.2 1.55 3.72529e-009
v 0.2 1.6 3.72529e-009
v 0.25 1.45 3.72529e-009
v 0.25 1.6 3.72529e-009
v 0.3 1.4 3.72529e-009
v 0.3 1.65 3.72529e-009
v -0.2 1.45 -0.05
v -0.2 1.6 -0.05
v -0.15 1.45 -0.05
v -0.15 1.5 -0.05
v -0.15 1.55 -0.05
v -0.15 1.6 -0.05
v 0.2 1.45 -0.05
v 0.2 1.5 -0.05
v 0.2 1.55 -0.05
v 0.2 1.6 -0.05
v 0.25 1.45 -0.05
v 0.25 1.6 -0.05
v -0.25 1.4 -0.1
v -0.25 1.65 -0.1
v -0.2 1.45 -0.1
v -0.2 1.6 -0.1
v -0.15 1.45 -0.1
v -0.15 1.5 -0.1
v -0.15 1.55 -0.1
v -0.15 1.6 -0.1
v 0.2 1.45 -0.1
v 0.2 1.5 -0.1
v 0.2 1.55 -0.1
v 0.2 1.6 -0.1
v 0.25 1.45 -0.1
v 0.25 1.6 -0.1
v 0.3 1.4 -0.1
v 0.3 1.65 -0.1
v -0.25 1.4 3.72529e-009
v 0.3 1.4 3.72529e-009
v -0.25 1.4 -0.1
v 0.3 1.4 -0.1
v -0.15 1.55 3.72529e-009
v 0.2 1.55 3.72529e-009
v -0.15 1.55 -0.05
v 0.2 1.55 -0.05
v -0.2 1.6 3.72529e-009
v -0.15 1.6 3.72529e-009
v 0.2 1.6 3.72529e-009
v 0.25 1.6 3.72529e-009
v -0.2 1.6 -0.05
v -0.15 1.6 -0.05
v 0.2 1.6 -0.05
v 0.25 1.6 -0.05
v -0.2 1.45 3.72529e-009
v -0.15 1.45 3.72529e-009
v 0.2 1.45 3.72529e-009
v 0.25 1.45 3.72529e-009
v -0.2 1.45 -0.05
v -0.15 1.45 -0.05
v 0.2 1.45 -0.05
v 0.25 1.45 -0.05
v -0.15 1.5 3.72529e-009
v 0.2 1.5 3.72529e-009
v -0.15 1.5 -0.05
v 0.2 1.5 -0.05
v -0.25 1.65 3.72529e-009
v 0.3 1.65 3.72529e-009
v -0.25 1.65 -0.1
v 0.3 1.65 -0.1

# faces
f 3/1/1 2/1/1 1/1/1
f 4/1/1 2/1/1 3/1/1
f 7/3/1 6/3/1 5/3/1
f 8/3/1 6/3/1 7/3/1
f 11/3/1 10/3/1 9/3/1
f 12/3/1 10/3/1 11/3/1
f 15/1/1 14/1/1 13/1/1
f 16/1/1 14/1/1 15/1/1
f 17/1/2 18/1/2 19/1/2
f 19/1/2 18/1/2 20/1/2
f 21/3/2 22/3/2 23/3/2
f 23/3/2 22/3/2 24/3/2
f 25/3/2 26/3/2 27/3/2
f 27/3/2 26/3/2 28/3/2
f 29/1/2 30/1/2 31/1/2
f 31/1/2 30/1/2 32/1/2
f 35/1/3 34/1/3 33/1/3
f 36/1/3 34/1/3 35/1/3
f 37/1/3 35/1/3 33/1/3
f 40/1/3 34/1/3 36/1/3
f 41/3/3 38/3/3 37/3/3
f 41/1/3 37/1/3 33/1/3
f 42/3/3 38/3/3 41/3/3
f 43/3/3 40/3/3 39/3/3
f 44/1/3 34/1/3 40/1/3
f 44/3/3 40/3/3 43/3/3
f 45/1/3 41/1/3 33/1/3
f 46/1/3 34/1/3 44/1/3
f 47/1/3 45/1/3 33/1/3
f 47/1/3 46/1/3 45/1/3
f 48/1/3 34/1/3 46/1/3
f 48/1/3 46/1/3 47/1/3
f 51/2/3 50/2/3 49/2/3
f 52/2/3 50/2/3 51/2/3
f 53/2/3 50/2/3 52/2/3
f 54/2/3 50/2/3 53/2/3
f 56/2/3 53/2/3 52/2/3
f 57/2/3 53/2/3 56/2/3
f 59/2/3 56/2/3 55/2/3
f 59/2/3 58/2/3 57/2/3
f 59/2/3 57/2/3 56/2/3
f 60/2/3 58/2/3 59/2/3
f 61/1/4 62/1/4 63/1/4
f 63/1/4 62/1/4 64/1/4
f 61/1/4 63/1/4 65/1/4
f 63/2/4 64/2/4 65/2/4
f 65/2/4 64/2/4 66/2/4
f 66/2/4 64/2/4 67/2/4
f 64/1/4 62/1/4 68/1/4
f 67/2/4 64/2/4 68/2/4
f 61/1/4 65/1/4 69/1/4
f 65/3/4 66/3/4 69/3/4
f 66/2/4 67/2/4 70/2/4
f 69/3/4 66/3/4 70/3/4
f 67/3/4 68/3/4 71/3/4
f 70/2/4 67/2/4 71/2/4
f 68/1/4 62/1/4 72/1/4
f 71/3/4 68/3/4 72/3/4
f 61/1/4 69/1/4 73/1/4
f 70/2/4 71/2/4 73/2/4
f 71/2/4 72/2/4 73/2/4
f 69/2/4 70/2/4 73/2/4
f 72/1/4 62/1/4 74/1/4
f 73/2/4 72/2/4 74/2/4
f 61/1/4 73/1/4 75/1/4
f 73/1/4 74/1/4 75/1/4
f 74/1/4 62/1/4 76/1/4
f 75/1/4 74/1/4 76/1/4
f 79/1/5 78/1/5 77/1/5
f 80/1/5 78/1/5 79/1/5
f 83/3/5 82/3/5 81/3/5
f 84/3/5 82/3/5 83/3/5
f 89/1/5 86/1/5 85/1/5
f 90/1/5 86/1/5 89/1/5
f 91/1/5 88/1/5 87/1/5
f 92/1/5 88/1/5 91/1/5
f 93/1/6 94/1/6 97/1/6
f 97/1/6 94/1/6 98/1/6
f 95/1/6 96/1/6 99/1/6
f 99/1/6 96/1/6 100/1/6
f 101/3/6 102/3/6 103/3/6
f 103/3/6 102/3/6 104/3/6
f 105/1/6 106/1/6 107/1/6
f 107/1/6 106/1/6 108/1/6
