# MagicaVoxel @ Ephtracy

# group
o upper-torso-head

# material
mtllib bacon-7-upper-torso-head.mtl
usemtl palette

# normals
vn -1 0 0
vn 1 0 0
vn 0 0 1
vn 0 0 -1
vn 0 -1 0
vn 0 1 0

# texcoords
vt 0.869141 0.5
vt 0.888672 0.5
vt 0.896484 0.5

# verts
v -0.25 1.25 3.72529e-009
v -0.25 1.25 -0.15
v -0.25 1.4 3.72529e-009
v -0.25 1.4 -0.1
v -0.25 1.65 3.72529e-009
v -0.25 1.65 -0.1
v -0.25 2 -0.15
v -0.25 2 -0.2
v -0.25 2.15 3.72529e-009
v -0.25 2.15 -0.2
v 0.3 1.25 3.72529e-009
v 0.3 1.25 -0.15
v 0.3 1.4 3.72529e-009
v 0.3 1.4 -0.1
v 0.3 1.65 3.72529e-009
v 0.3 1.65 -0.1
v 0.3 2 -0.15
v 0.3 2 -0.2
v 0.3 2.15 3.72529e-009
v 0.3 2.15 -0.2
v -0.25 1.25 3.72529e-009
v -0.25 1.4 3.72529e-009
v -0.25 1.65 3.72529e-009
v -0.25 2.15 3.72529e-009
v -0.15 1.25 3.72529e-009
v -0.15 1.4 3.72529e-009
v -0.15 2 3.72529e-009
v -0.15 2.15 3.72529e-009
v -0.05 1.25 3.72529e-009
v -0.05 1.4 3.72529e-009
v -0.05 2 3.72529e-009
v -0.05 2.15 3.72529e-009
v 0.1 1.25 3.72529e-009
v 0.1 1.4 3.72529e-009
v 0.1 2 3.72529e-009
v 0.1 2.15 3.72529e-009
v 0.2 1.25 3.72529e-009
v 0.2 1.4 3.72529e-009
v 0.2 2 3.72529e-009
v 0.2 2.15 3.72529e-009
v 0.3 1.25 3.72529e-009
v 0.3 1.4 3.72529e-009
v 0.3 1.65 3.72529e-009
v 0.3 2.15 3.72529e-009
v -0.25 1.4 -0.1
v -0.25 1.65 -0.1
v -0.15 1.4 -0.1
v -0.15 1.65 -0.1
v -0.05 1.4 -0.1
v -0.05 1.65 -0.1
v 0.1 1.4 -0.1
v 0.1 1.65 -0.1
v 0.2 1.4 -0.1
v 0.2 1.65 -0.1
v 0.3 1.4 -0.1
v 0.3 1.65 -0.1
v -0.25 1.25 -0.15
v -0.25 2 -0.15
v -0.15 1.25 -0.15
v -0.15 2 -0.15
v -0.05 1.25 -0.15
v -0.05 2 -0.15
v 0.1 1.25 -0.15
v 0.1 2 -0.15
v 0.2 1.25 -0.15
v 0.2 2 -0.15
v 0.3 1.25 -0.15
v 0.3 2 -0.15
v -0.25 2 -0.2
v -0.25 2.15 -0.2
v -0.15 2 -0.2
v -0.15 2.15 -0.2
v -0.05 2 -0.2
v -0.05 2.15 -0.2
v 0.1 2 -0.2
v 0.1 2.15 -0.2
v 0.2 2 -0.2
v 0.2 2.15 -0.2
v 0.3 2 -0.2
v 0.3 2.15 -0.2
v -0.25 1.25 3.72529e-009
v -0.15 1.25 3.72529e-009
v -0.05 1.25 3.72529e-009
v 0.1 1.25 3.72529e-009
v 0.2 1.25 3.72529e-009
v 0.3 1.25 3.72529e-009
v -0.15 1.25 -0.05
v -0.05 1.25 -0.05
v 0.1 1.25 -0.05
v 0.2 1.25 -0.05
v -0.15 1.25 -0.1
v -0.05 1.25 -0.1
v 0.1 1.25 -0.1
v 0.2 1.25 -0.1
v -0.25 1.25 -0.15
v -0.15 1.25 -0.15
v -0.05 1.25 -0.15
v 0.1 1.25 -0.15
v 0.2 1.25 -0.15
v 0.3 1.25 -0.15
v -0.25 1.65 3.72529e-009
v 0.3 1.65 3.72529e-009
v -0.25 1.65 -0.1
v -0.15 1.65 -0.1
v -0.05 1.65 -0.1
v 0.1 1.65 -0.1
v 0.2 1.65 -0.1
v 0.3 1.65 -0.1
v -0.25 2 -0.15
v -0.15 2 -0.15
v -0.05 2 -0.15
v 0.1 2 -0.15
v 0.2 2 -0.15
v 0.3 2 -0.15
v -0.25 2 -0.2
v -0.15 2 -0.2
v -0.05 2 -0.2
v 0.1 2 -0.2
v 0.2 2 -0.2
v 0.3 2 -0.2
v -0.25 1.4 3.72529e-009
v -0.15 1.4 3.72529e-009
v -0.05 1.4 3.72529e-009
v 0.1 1.4 3.72529e-009
v 0.2 1.4 3.72529e-009
v 0.3 1.4 3.72529e-009
v -0.25 1.4 -0.1
v -0.15 1.4 -0.1
v -0.05 1.4 -0.1
v 0.1 1.4 -0.1
v 0.2 1.4 -0.1
v 0.3 1.4 -0.1
v -0.25 2.15 3.72529e-009
v -0.15 2.15 3.72529e-009
v -0.05 2.15 3.72529e-009
v 0.1 2.15 3.72529e-009
v 0.2 2.15 3.72529e-009
v 0.3 2.15 3.72529e-009
v -0.25 2.15 -0.2
v -0.15 2.15 -0.2
v -0.05 2.15 -0.2
v 0.1 2.15 -0.2
v 0.2 2.15 -0.2
v 0.3 2.15 -0.2

# faces
f 3/1/1 2/1/1 1/1/1
f 4/1/1 2/1/1 3/1/1
f 6/1/1 2/1/1 4/1/1
f 7/1/1 2/1/1 6/1/1
f 7/1/1 6/1/1 5/1/1
f 9/1/1 7/1/1 5/1/1
f 9/1/1 8/1/1 7/1/1
f 10/1/1 8/1/1 9/1/1
f 11/1/2 12/1/2 13/1/2
f 13/1/2 12/1/2 14/1/2
f 14/1/2 12/1/2 16/1/2
f 16/1/2 12/1/2 17/1/2
f 15/1/2 16/1/2 17/1/2
f 15/1/2 17/1/2 19/1/2
f 17/1/2 18/1/2 19/1/2
f 19/1/2 18/1/2 20/1/2
f 25/1/3 22/1/3 21/1/3
f 26/1/3 22/1/3 25/1/3
f 27/1/3 24/1/3 23/1/3
f 28/1/3 24/1/3 27/1/3
f 29/3/3 26/3/3 25/3/3
f 30/3/3 26/3/3 29/3/3
f 31/1/3 27/1/3 23/1/3
f 31/3/3 28/3/3 27/3/3
f 32/3/3 28/3/3 31/3/3
f 33/1/3 30/1/3 29/1/3
f 34/1/3 30/1/3 33/1/3
f 35/1/3 31/1/3 23/1/3
f 35/1/3 32/1/3 31/1/3
f 36/1/3 32/1/3 35/1/3
f 37/3/3 34/3/3 33/3/3
f 38/3/3 34/3/3 37/3/3
f 39/1/3 35/1/3 23/1/3
f 39/3/3 36/3/3 35/3/3
f 40/3/3 36/3/3 39/3/3
f 41/1/3 38/1/3 37/1/3
f 42/1/3 38/1/3 41/1/3
f 43/1/3 39/1/3 23/1/3
f 43/1/3 40/1/3 39/1/3
f 44/1/3 40/1/3 43/1/3
f 47/1/3 46/1/3 45/1/3
f 48/1/3 46/1/3 47/1/3
f 49/3/3 48/3/3 47/3/3
f 50/3/3 48/3/3 49/3/3
f 51/1/3 50/1/3 49/1/3
f 52/1/3 50/1/3 51/1/3
f 53/3/3 52/3/3 51/3/3
f 54/3/3 52/3/3 53/3/3
f 55/1/3 54/1/3 53/1/3
f 56/1/3 54/1/3 55/1/3
f 57/1/4 58/1/4 59/1/4
f 59/1/4 58/1/4 60/1/4
f 59/3/4 60/3/4 61/3/4
f 61/3/4 60/3/4 62/3/4
f 61/1/4 62/1/4 63/1/4
f 63/1/4 62/1/4 64/1/4
f 63/3/4 64/3/4 65/3/4
f 65/3/4 64/3/4 66/3/4
f 65/1/4 66/1/4 67/1/4
f 67/1/4 66/1/4 68/1/4
f 69/1/4 70/1/4 71/1/4
f 71/1/4 70/1/4 72/1/4
f 71/3/4 72/3/4 73/3/4
f 73/3/4 72/3/4 74/3/4
f 73/1/4 74/1/4 75/1/4
f 75/1/4 74/1/4 76/1/4
f 75/3/4 76/3/4 77/3/4
f 77/3/4 76/3/4 78/3/4
f 77/1/4 78/1/4 79/1/4
f 79/1/4 78/1/4 80/1/4
f 87/1/5 82/1/5 81/1/5
f 87/3/5 83/3/5 82/3/5
f 88/1/5 84/1/5 83/1/5
f 88/3/5 83/3/5 87/3/5
f 89/3/5 85/3/5 84/3/5
f 89/1/5 84/1/5 88/1/5
f 90/1/5 86/1/5 85/1/5
f 90/3/5 85/3/5 89/3/5
f 91/1/5 89/1/5 88/1/5
f 91/1/5 88/1/5 87/1/5
f 91/1/5 90/1/5 89/1/5
f 91/1/5 87/1/5 81/1/5
f 92/1/5 90/1/5 91/1/5
f 93/1/5 90/1/5 92/1/5
f 94/1/5 86/1/5 90/1/5
f 94/1/5 90/1/5 93/1/5
f 95/1/5 91/1/5 81/1/5
f 96/3/5 92/3/5 91/3/5
f 96/1/5 91/1/5 95/1/5
f 97/1/5 93/1/5 92/1/5
f 97/3/5 92/3/5 96/3/5
f 98/3/5 94/3/5 93/3/5
f 98/1/5 93/1/5 97/1/5
f 99/1/5 86/1/5 94/1/5
f 99/3/5 94/3/5 98/3/5
f 100/1/5 86/1/5 99/1/5
f 103/1/5 102/1/5 101/1/5
f 104/1/5 102/1/5 103/1/5
f 105/1/5 102/1/5 104/1/5
f 106/1/5 102/1/5 105/1/5
f 107/1/5 102/1/5 106/1/5
f 108/1/5 102/1/5 107/1/5
f 115/1/5 110/1/5 109/1/5
f 116/3/5 111/3/5 110/3/5
f 116/1/5 110/1/5 115/1/5
f 117/1/5 112/1/5 111/1/5
f 117/3/5 111/3/5 116/3/5
f 118/3/5 113/3/5 112/3/5
f 118/1/5 112/1/5 117/1/5
f 119/1/5 114/1/5 113/1/5
f 119/3/5 113/3/5 118/3/5
f 120/1/5 114/1/5 119/1/5
f 121/1/6 122/1/6 127/1/6
f 122/3/6 123/3/6 128/3/6
f 127/1/6 122/1/6 128/1/6
f 123/1/6 124/1/6 129/1/6
f 128/3/6 123/3/6 129/3/6
f 124/3/6 125/3/6 130/3/6
f 129/1/6 124/1/6 130/1/6
f 125/1/6 126/1/6 131/1/6
f 130/3/6 125/3/6 131/3/6
f 131/1/6 126/1/6 132/1/6
f 133/1/6 134/1/6 139/1/6
f 134/3/6 135/3/6 140/3/6
f 139/1/6 134/1/6 140/1/6
f 135/1/6 136/1/6 141/1/6
f 140/3/6 135/3/6 141/3/6
f 136/3/6 137/3/6 142/3/6
f 141/1/6 136/1/6 142/1/6
f 137/1/6 138/1/6 143/1/6
f 142/3/6 137/3/6 143/3/6
f 143/1/6 138/1/6 144/1/6
