# MagicaVoxel @ Ephtracy

# group
o alarm-clock

# material
mtllib obj-4-alarm-clock.mtl
usemtl palette

# normals
vn -1 0 0
vn 1 0 0
vn 0 0 1
vn 0 0 -1
vn 0 -1 0
vn 0 1 0

# texcoords
vt 0.791016 0.5
vt 0.939453 0.5
vt 0.947266 0.5
vt 0.951172 0.5

# verts
v -0.25 0.05 0.1
v -0.25 0.05 -0.15
v -0.25 0.3 0.1
v -0.25 0.3 -0.15
v -0.15 0 0.05
v -0.15 0 0
v -0.15 0 -0.05
v -0.15 0 -0.1
v -0.15 0.05 0.05
v -0.15 0.05 0
v -0.15 0.05 -0.05
v -0.15 0.05 -0.1
v -0.05 0.3 0
v -0.05 0.3 -0.05
v -0.05 0.35 0
v -0.05 0.35 -0.05
v 0.1 0 0.05
v 0.1 0 0
v 0.1 0 -0.05
v 0.1 0 -0.1
v 0.1 0.05 0.05
v 0.1 0.05 0
v 0.1 0.05 -0.05
v 0.1 0.05 -0.1
v 0.2 0.1 0.1
v 0.2 0.1 0.05
v 0.2 0.1 -0.1
v 0.2 0.1 -0.15
v 0.2 0.25 0.1
v 0.2 0.25 0.05
v 0.2 0.25 -0.1
v 0.2 0.25 -0.15
v -0.2 0.1 0.1
v -0.2 0.1 0.05
v -0.2 0.1 -0.1
v -0.2 0.1 -0.15
v -0.2 0.25 0.1
v -0.2 0.25 0.05
v -0.2 0.25 -0.1
v -0.2 0.25 -0.15
v -0.1 0 0.05
v -0.1 0 0
v -0.1 0 -0.05
v -0.1 0 -0.1
v -0.1 0.05 0.05
v -0.1 0.05 0
v -0.1 0.05 -0.05
v -0.1 0.05 -0.1
v 0.05 0.3 0
v 0.05 0.3 -0.05
v 0.05 0.35 0
v 0.05 0.35 -0.05
v 0.15 0 0.05
v 0.15 0 0
v 0.15 0 -0.05
v 0.15 0 -0.1
v 0.15 0.05 0.05
v 0.15 0.05 0
v 0.15 0.05 -0.05
v 0.15 0.05 -0.1
v 0.25 0.05 0.1
v 0.25 0.05 -0.15
v 0.25 0.3 0.1
v 0.25 0.3 -0.15
v -0.25 0.05 0.1
v -0.25 0.3 0.1
v -0.2 0.1 0.1
v -0.2 0.25 0.1
v 0.2 0.1 0.1
v 0.2 0.25 0.1
v 0.25 0.05 0.1
v 0.25 0.3 0.1
v -0.2 0.1 0.05
v -0.2 0.25 0.05
v -0.15 0 0.05
v -0.15 0.05 0.05
v -0.15 0.15 0.05
v -0.15 0.2 0.05
v -0.1 0 0.05
v -0.1 0.05 0.05
v -0.05 0.15 0.05
v -0.05 0.2 0.05
v 0 0.15 0.05
v 0 0.2 0.05
v 0.1 0 0.05
v 0.1 0.05 0.05
v 0.15 0 0.05
v 0.15 0.05 0.05
v 0.15 0.15 0.05
v 0.15 0.2 0.05
v 0.2 0.1 0.05
v 0.2 0.25 0.05
v -0.05 0.3 0
v -0.05 0.35 0
v 0.05 0.3 0
v 0.05 0.35 0
v -0.15 0 -0.05
v -0.15 0.05 -0.05
v -0.1 0 -0.05
v -0.1 0.05 -0.05
v 0.1 0 -0.05
v 0.1 0.05 -0.05
v 0.15 0 -0.05
v 0.15 0.05 -0.05
v -0.15 0 0
v -0.15 0.05 0
v -0.1 0 0
v -0.1 0.05 0
v 0.1 0 0
v 0.1 0.05 0
v 0.15 0 0
v 0.15 0.05 0
v -0.05 0.3 -0.05
v -0.05 0.35 -0.05
v 0.05 0.3 -0.05
v 0.05 0.35 -0.05
v -0.2 0.1 -0.1
v -0.2 0.25 -0.1
v -0.15 0 -0.1
v -0.15 0.05 -0.1
v -0.1 0 -0.1
v -0.1 0.05 -0.1
v 0.1 0 -0.1
v 0.1 0.05 -0.1
v 0.15 0 -0.1
v 0.15 0.05 -0.1
v 0.2 0.1 -0.1
v 0.2 0.25 -0.1
v -0.25 0.05 -0.15
v -0.25 0.3 -0.15
v -0.2 0.1 -0.15
v -0.2 0.25 -0.15
v 0.2 0.1 -0.15
v 0.2 0.25 -0.15
v 0.25 0.05 -0.15
v 0.25 0.3 -0.15
v -0.15 0 0.05
v -0.1 0 0.05
v 0.1 0 0.05
v 0.15 0 0.05
v -0.15 0 0
v -0.1 0 0
v 0.1 0 0
v 0.15 0 0
v -0.15 0 -0.05
v -0.1 0 -0.05
v 0.1 0 -0.05
v 0.15 0 -0.05
v -0.15 0 -0.1
v -0.1 0 -0.1
v 0.1 0 -0.1
v 0.15 0 -0.1
v -0.25 0.05 0.1
v 0.25 0.05 0.1
v -0.15 0.05 0.05
v -0.1 0.05 0.05
v 0.1 0.05 0.05
v 0.15 0.05 0.05
v -0.15 0.05 0
v -0.1 0.05 0
v 0.1 0.05 0
v 0.15 0.05 0
v -0.15 0.05 -0.05
v -0.1 0.05 -0.05
v 0.1 0.05 -0.05
v 0.15 0.05 -0.05
v -0.15 0.05 -0.1
v -0.1 0.05 -0.1
v 0.1 0.05 -0.1
v 0.15 0.05 -0.1
v -0.25 0.05 -0.15
v 0.25 0.05 -0.15
v -0.2 0.25 0.1
v 0.2 0.25 0.1
v -0.2 0.25 0.05
v 0.2 0.25 0.05
v -0.2 0.25 -0.1
v 0.2 0.25 -0.1
v -0.2 0.25 -0.15
v 0.2 0.25 -0.15
v -0.2 0.1 0.1
v 0.2 0.1 0.1
v -0.2 0.1 0.05
v 0.2 0.1 0.05
v -0.2 0.1 -0.1
v 0.2 0.1 -0.1
v -0.2 0.1 -0.15
v 0.2 0.1 -0.15
v -0.25 0.3 0.1
v 0.25 0.3 0.1
v -0.05 0.3 0
v 0.05 0.3 0
v -0.05 0.3 -0.05
v 0.05 0.3 -0.05
v -0.25 0.3 -0.15
v 0.25 0.3 -0.15
v -0.05 0.35 0
v 0.05 0.35 0
v -0.05 0.35 -0.05
v 0.05 0.35 -0.05

# faces
f 3/3/1 2/3/1 1/3/1
f 4/3/1 2/3/1 3/3/1
f 9/1/1 6/1/1 5/1/1
f 10/1/1 6/1/1 9/1/1
f 11/1/1 8/1/1 7/1/1
f 12/1/1 8/1/1 11/1/1
f 15/1/1 14/1/1 13/1/1
f 16/1/1 14/1/1 15/1/1
f 21/1/1 18/1/1 17/1/1
f 22/1/1 18/1/1 21/1/1
f 23/1/1 20/1/1 19/1/1
f 24/1/1 20/1/1 23/1/1
f 29/3/1 26/3/1 25/3/1
f 30/3/1 26/3/1 29/3/1
f 31/3/1 28/3/1 27/3/1
f 32/3/1 28/3/1 31/3/1
f 33/3/2 34/3/2 37/3/2
f 37/3/2 34/3/2 38/3/2
f 35/3/2 36/3/2 39/3/2
f 39/3/2 36/3/2 40/3/2
f 41/1/2 42/1/2 45/1/2
f 45/1/2 42/1/2 46/1/2
f 43/1/2 44/1/2 47/1/2
f 47/1/2 44/1/2 48/1/2
f 49/1/2 50/1/2 51/1/2
f 51/1/2 50/1/2 52/1/2
f 53/1/2 54/1/2 57/1/2
f 57/1/2 54/1/2 58/1/2
f 55/1/2 56/1/2 59/1/2
f 59/1/2 56/1/2 60/1/2
f 61/3/2 62/3/2 63/3/2
f 63/3/2 62/3/2 64/3/2
f 67/3/3 66/3/3 65/3/3
f 68/3/3 66/3/3 67/3/3
f 69/3/3 67/3/3 65/3/3
f 70/3/3 66/3/3 68/3/3
f 71/3/3 69/3/3 65/3/3
f 71/3/3 70/3/3 69/3/3
f 72/3/3 66/3/3 70/3/3
f 72/3/3 70/3/3 71/3/3
f 77/3/3 74/3/3 73/3/3
f 78/3/3 74/3/3 77/3/3
f 79/1/3 76/1/3 75/1/3
f 80/1/3 76/1/3 79/1/3
f 81/3/3 77/3/3 73/3/3
f 81/4/3 78/4/3 77/4/3
f 82/3/3 74/3/3 78/3/3
f 82/4/3 78/4/3 81/4/3
f 83/3/3 81/3/3 73/3/3
f 83/3/3 82/3/3 81/3/3
f 84/3/3 74/3/3 82/3/3
f 84/3/3 82/3/3 83/3/3
f 87/1/3 86/1/3 85/1/3
f 88/1/3 86/1/3 87/1/3
f 89/3/3 83/3/3 73/3/3
f 89/4/3 84/4/3 83/4/3
f 90/3/3 74/3/3 84/3/3
f 90/4/3 84/4/3 89/4/3
f 91/3/3 89/3/3 73/3/3
f 91/3/3 90/3/3 89/3/3
f 92/3/3 74/3/3 90/3/3
f 92/3/3 90/3/3 91/3/3
f 95/1/3 94/1/3 93/1/3
f 96/1/3 94/1/3 95/1/3
f 99/1/3 98/1/3 97/1/3
f 100/1/3 98/1/3 99/1/3
f 103/1/3 102/1/3 101/1/3
f 104/1/3 102/1/3 103/1/3
f 105/1/4 106/1/4 107/1/4
f 107/1/4 106/1/4 108/1/4
f 109/1/4 110/1/4 111/1/4
f 111/1/4 110/1/4 112/1/4
f 113/1/4 114/1/4 115/1/4
f 115/1/4 114/1/4 116/1/4
f 119/1/4 120/1/4 121/1/4
f 121/1/4 120/1/4 122/1/4
f 123/1/4 124/1/4 125/1/4
f 125/1/4 124/1/4 126/1/4
f 117/3/4 118/3/4 127/3/4
f 127/3/4 118/3/4 128/3/4
f 129/3/4 130/3/4 131/3/4
f 131/3/4 130/3/4 132/3/4
f 129/3/4 131/3/4 133/3/4
f 132/3/4 130/3/4 134/3/4
f 129/3/4 133/3/4 135/3/4
f 133/3/4 134/3/4 135/3/4
f 134/3/4 130/3/4 136/3/4
f 135/3/4 134/3/4 136/3/4
f 141/1/5 138/1/5 137/1/5
f 142/1/5 138/1/5 141/1/5
f 143/1/5 140/1/5 139/1/5
f 144/1/5 140/1/5 143/1/5
f 149/1/5 146/1/5 145/1/5
f 150/1/5 146/1/5 149/1/5
f 151/1/5 148/1/5 147/1/5
f 152/1/5 148/1/5 151/1/5
f 155/3/5 154/3/5 153/3/5
f 156/3/5 154/3/5 155/3/5
f 157/3/5 154/3/5 156/3/5
f 158/3/5 154/3/5 157/3/5
f 159/3/5 155/3/5 153/3/5
f 160/3/5 157/3/5 156/3/5
f 161/3/5 157/3/5 160/3/5
f 162/3/5 154/3/5 158/3/5
f 163/3/5 161/3/5 160/3/5
f 163/3/5 162/3/5 161/3/5
f 163/3/5 159/3/5 153/3/5
f 163/3/5 160/3/5 159/3/5
f 164/3/5 162/3/5 163/3/5
f 165/3/5 162/3/5 164/3/5
f 166/3/5 154/3/5 162/3/5
f 166/3/5 162/3/5 165/3/5
f 167/3/5 163/3/5 153/3/5
f 168/3/5 165/3/5 164/3/5
f 169/3/5 165/3/5 168/3/5
f 170/3/5 154/3/5 166/3/5
f 171/3/5 167/3/5 153/3/5
f 171/3/5 170/3/5 169/3/5
f 171/3/5 169/3/5 168/3/5
f 171/3/5 168/3/5 167/3/5
f 172/3/5 154/3/5 170/3/5
f 172/3/5 170/3/5 171/3/5
f 175/3/5 174/3/5 173/3/5
f 176/3/5 174/3/5 175/3/5
f 179/3/5 178/3/5 177/3/5
f 180/3/5 178/3/5 179/3/5
f 181/3/6 182/3/6 183/3/6
f 183/3/6 182/3/6 184/3/6
f 185/3/6 186/3/6 187/3/6
f 187/3/6 186/3/6 188/3/6
f 189/3/6 190/3/6 191/3/6
f 191/3/6 190/3/6 192/3/6
f 189/3/6 191/3/6 193/3/6
f 192/3/6 190/3/6 194/3/6
f 189/3/6 193/3/6 195/3/6
f 193/3/6 194/3/6 195/3/6
f 194/3/6 190/3/6 196/3/6
f 195/3/6 194/3/6 196/3/6
f 197/1/6 198/1/6 199/1/6
f 199/1/6 198/1/6 200/1/6
