# MagicaVoxel @ Ephtracy

# group
o dresser-0

# material
mtllib obj-1-dresser-0.mtl
usemtl palette

# normals
vn -1 0 0
vn 1 0 0
vn 0 0 1
vn 0 0 -1
vn 0 -1 0
vn 0 1 0

# texcoords
vt 0.791016 0.5
vt 0.923828 0.5
vt 0.927734 0.5

# verts
v -0.75 2.05 0.35
v -0.75 2.05 -0.45
v -0.75 2.1 0.35
v -0.75 2.1 -0.45
v -0.7 0.1 0.3
v -0.7 0.1 -0.45
v -0.7 2.05 0.3
v -0.7 2.05 -0.45
v -0.65 0 0.25
v -0.65 0 -0.4
v -0.65 0.1 0.25
v -0.65 0.1 -0.4
v -0.6 0.25 0.35
v -0.6 0.25 0.3
v -0.6 0.5 0.35
v -0.6 0.5 0.3
v -0.6 0.6 0.35
v -0.6 0.6 0.3
v -0.6 1.95 0.35
v -0.6 1.95 0.3
v -0.25 1.2 0.45
v -0.25 1.2 0.4
v -0.25 1.35 0.45
v -0.25 1.35 0.4
v -0.2 1.25 0.4
v -0.2 1.25 0.35
v -0.2 1.3 0.4
v -0.2 1.3 0.35
v -0.15 0.35 0.4
v -0.15 0.35 0.35
v -0.15 0.4 0.4
v -0.15 0.4 0.35
v 0.05 0.6 0.35
v 0.05 0.6 0.3
v 0.05 1.95 0.35
v 0.05 1.95 0.3
v 0.15 1.2 0.45
v 0.15 1.2 0.4
v 0.15 1.35 0.45
v 0.15 1.35 0.4
v 0.2 1.25 0.4
v 0.2 1.25 0.35
v 0.2 1.3 0.4
v 0.2 1.3 0.35
v -0.15 1.25 0.4
v -0.15 1.25 0.35
v -0.15 1.3 0.4
v -0.15 1.3 0.35
v -0.1 1.2 0.45
v -0.1 1.2 0.4
v -0.1 1.35 0.45
v -0.1 1.35 0.4
v 0 0.6 0.35
v 0 0.6 0.3
v 0 1.95 0.35
v 0 1.95 0.3
v 0.2 0.35 0.4
v 0.2 0.35 0.35
v 0.2 0.4 0.4
v 0.2 0.4 0.35
v 0.25 1.25 0.4
v 0.25 1.25 0.35
v 0.25 1.3 0.4
v 0.25 1.3 0.35
v 0.3 1.2 0.45
v 0.3 1.2 0.4
v 0.3 1.35 0.45
v 0.3 1.35 0.4
v 0.65 0.6 0.35
v 0.65 0.6 0.3
v 0.65 1.95 0.35
v 0.65 1.95 0.3
v 0.7 0 0.25
v 0.7 0 -0.4
v 0.7 0.1 0.25
v 0.7 0.1 -0.4
v 0.7 0.25 0.35
v 0.7 0.25 0.3
v 0.7 0.5 0.35
v 0.7 0.5 0.3
v 0.75 0.1 0.3
v 0.75 0.1 -0.45
v 0.75 2.05 0.3
v 0.75 2.05 -0.45
v 0.8 2.05 0.35
v 0.8 2.05 -0.45
v 0.8 2.1 0.35
v 0.8 2.1 -0.45
v -0.25 1.2 0.45
v -0.25 1.35 0.45
v -0.1 1.2 0.45
v -0.1 1.35 0.45
v 0.15 1.2 0.45
v 0.15 1.35 0.45
v 0.3 1.2 0.45
v 0.3 1.35 0.45
v -0.15 0.35 0.4
v -0.15 0.4 0.4
v 0.2 0.35 0.4
v 0.2 0.4 0.4
v -0.75 2.05 0.35
v -0.75 2.1 0.35
v -0.6 0.25 0.35
v -0.6 0.5 0.35
v -0.6 0.6 0.35
v -0.6 1.95 0.35
v -0.2 1.25 0.35
v -0.2 1.3 0.35
v -0.15 0.35 0.35
v -0.15 0.4 0.35
v -0.15 1.25 0.35
v -0.15 1.3 0.35
v 0 0.6 0.35
v 0 1.95 0.35
v 0.05 0.6 0.35
v 0.05 1.95 0.35
v 0.2 0.35 0.35
v 0.2 0.4 0.35
v 0.2 1.25 0.35
v 0.2 1.3 0.35
v 0.25 1.25 0.35
v 0.25 1.3 0.35
v 0.65 0.6 0.35
v 0.65 1.95 0.35
v 0.7 0.25 0.35
v 0.7 0.5 0.35
v 0.8 2.05 0.35
v 0.8 2.1 0.35
v -0.7 0.1 0.3
v -0.7 2.05 0.3
v -0.6 0.25 0.3
v -0.6 0.5 0.3
v -0.6 0.6 0.3
v -0.6 1.95 0.3
v 0 0.6 0.3
v 0 1.95 0.3
v 0.05 0.6 0.3
v 0.05 1.95 0.3
v 0.65 0.6 0.3
v 0.65 1.95 0.3
v 0.7 0.25 0.3
v 0.7 0.5 0.3
v 0.75 0.1 0.3
v 0.75 2.05 0.3
v -0.65 0 0.25
v -0.65 0.1 0.25
v 0.7 0 0.25
v 0.7 0.1 0.25
v -0.25 1.2 0.4
v -0.25 1.35 0.4
v -0.2 1.25 0.4
v -0.2 1.3 0.4
v -0.15 1.25 0.4
v -0.15 1.3 0.4
v -0.1 1.2 0.4
v -0.1 1.35 0.4
v 0.15 1.2 0.4
v 0.15 1.35 0.4
v 0.2 1.25 0.4
v 0.2 1.3 0.4
v 0.25 1.25 0.4
v 0.25 1.3 0.4
v 0.3 1.2 0.4
v 0.3 1.35 0.4
v -0.65 0 -0.4
v -0.65 0.1 -0.4
v 0.7 0 -0.4
v 0.7 0.1 -0.4
v -0.75 2.05 -0.45
v -0.75 2.1 -0.45
v -0.7 0.1 -0.45
v -0.7 2.05 -0.45
v 0.75 0.1 -0.45
v 0.75 2.05 -0.45
v 0.8 2.05 -0.45
v 0.8 2.1 -0.45
v -0.65 0 0.25
v 0.7 0 0.25
v -0.65 0 -0.4
v 0.7 0 -0.4
v -0.7 0.1 0.3
v 0.75 0.1 0.3
v -0.65 0.1 0.25
v 0.7 0.1 0.25
v -0.65 0.1 -0.4
v 0.7 0.1 -0.4
v -0.7 0.1 -0.45
v 0.75 0.1 -0.45
v -0.6 0.25 0.35
v 0.7 0.25 0.35
v -0.6 0.25 0.3
v 0.7 0.25 0.3
v -0.15 0.35 0.4
v 0.2 0.35 0.4
v -0.15 0.35 0.35
v 0.2 0.35 0.35
v -0.6 0.6 0.35
v 0 0.6 0.35
v 0.05 0.6 0.35
v 0.65 0.6 0.35
v -0.6 0.6 0.3
v 0 0.6 0.3
v 0.05 0.6 0.3
v 0.65 0.6 0.3
v -0.25 1.2 0.45
v -0.1 1.2 0.45
v 0.15 1.2 0.45
v 0.3 1.2 0.45
v -0.25 1.2 0.4
v -0.1 1.2 0.4
v 0.15 1.2 0.4
v 0.3 1.2 0.4
v -0.2 1.25 0.4
v -0.15 1.25 0.4
v 0.2 1.25 0.4
v 0.25 1.25 0.4
v -0.2 1.25 0.35
v -0.15 1.25 0.35
v 0.2 1.25 0.35
v 0.25 1.25 0.35
v -0.75 2.05 0.35
v 0.8 2.05 0.35
v -0.7 2.05 0.3
v 0.75 2.05 0.3
v -0.75 2.05 -0.45
v -0.7 2.05 -0.45
v 0.75 2.05 -0.45
v 0.8 2.05 -0.45
v -0.15 0.4 0.4
v 0.2 0.4 0.4
v -0.15 0.4 0.35
v 0.2 0.4 0.35
v -0.6 0.5 0.35
v 0.7 0.5 0.35
v -0.6 0.5 0.3
v 0.7 0.5 0.3
v -0.2 1.3 0.4
v -0.15 1.3 0.4
v 0.2 1.3 0.4
v 0.25 1.3 0.4
v -0.2 1.3 0.35
v -0.15 1.3 0.35
v 0.2 1.3 0.35
v 0.25 1.3 0.35
v -0.25 1.35 0.45
v -0.1 1.35 0.45
v 0.15 1.35 0.45
v 0.3 1.35 0.45
v -0.25 1.35 0.4
v -0.1 1.35 0.4
v 0.15 1.35 0.4
v 0.3 1.35 0.4
v -0.6 1.95 0.35
v 0 1.95 0.35
v 0.05 1.95 0.35
v 0.65 1.95 0.35
v -0.6 1.95 0.3
v 0 1.95 0.3
v 0.05 1.95 0.3
v 0.65 1.95 0.3
v -0.75 2.1 0.35
v 0.8 2.1 0.35
v -0.75 2.1 -0.45
v 0.8 2.1 -0.45

# faces
f 3/3/1 2/3/1 1/3/1
f 4/3/1 2/3/1 3/3/1
f 7/2/1 6/2/1 5/2/1
f 8/2/1 6/2/1 7/2/1
f 11/3/1 10/3/1 9/3/1
f 12/3/1 10/3/1 11/3/1
f 15/3/1 14/3/1 13/3/1
f 16/3/1 14/3/1 15/3/1
f 19/3/1 18/3/1 17/3/1
f 20/3/1 18/3/1 19/3/1
f 23/1/1 22/1/1 21/1/1
f 24/1/1 22/1/1 23/1/1
f 27/1/1 26/1/1 25/1/1
f 28/1/1 26/1/1 27/1/1
f 31/1/1 30/1/1 29/1/1
f 32/1/1 30/1/1 31/1/1
f 35/3/1 34/3/1 33/3/1
f 36/3/1 34/3/1 35/3/1
f 39/1/1 38/1/1 37/1/1
f 40/1/1 38/1/1 39/1/1
f 43/1/1 42/1/1 41/1/1
f 44/1/1 42/1/1 43/1/1
f 45/1/2 46/1/2 47/1/2
f 47/1/2 46/1/2 48/1/2
f 49/1/2 50/1/2 51/1/2
f 51/1/2 50/1/2 52/1/2
f 53/3/2 54/3/2 55/3/2
f 55/3/2 54/3/2 56/3/2
f 57/1/2 58/1/2 59/1/2
f 59/1/2 58/1/2 60/1/2
f 61/1/2 62/1/2 63/1/2
f 63/1/2 62/1/2 64/1/2
f 65/1/2 66/1/2 67/1/2
f 67/1/2 66/1/2 68/1/2
f 69/3/2 70/3/2 71/3/2
f 71/3/2 70/3/2 72/3/2
f 73/3/2 74/3/2 75/3/2
f 75/3/2 74/3/2 76/3/2
f 77/3/2 78/3/2 79/3/2
f 79/3/2 78/3/2 80/3/2
f 81/2/2 82/2/2 83/2/2
f 83/2/2 82/2/2 84/2/2
f 85/3/2 86/3/2 87/3/2
f 87/3/2 86/3/2 88/3/2
f 91/1/3 90/1/3 89/1/3
f 92/1/3 90/1/3 91/1/3
f 95/1/3 94/1/3 93/1/3
f 96/1/3 94/1/3 95/1/3
f 99/1/3 98/1/3 97/1/3
f 100/1/3 98/1/3 99/1/3
f 107/3/3 106/3/3 105/3/3
f 108/3/3 106/3/3 107/3/3
f 109/3/3 104/3/3 103/3/3
f 110/3/3 104/3/3 109/3/3
f 111/3/3 107/3/3 105/3/3
f 112/3/3 106/3/3 108/3/3
f 113/3/3 111/3/3 105/3/3
f 113/3/3 112/3/3 111/3/3
f 114/3/3 106/3/3 112/3/3
f 114/3/3 112/3/3 113/3/3
f 117/3/3 109/3/3 103/3/3
f 118/3/3 104/3/3 110/3/3
f 119/3/3 116/3/3 115/3/3
f 120/3/3 116/3/3 119/3/3
f 121/3/3 119/3/3 115/3/3
f 122/3/3 116/3/3 120/3/3
f 123/3/3 121/3/3 115/3/3
f 123/3/3 122/3/3 121/3/3
f 124/3/3 116/3/3 122/3/3
f 124/3/3 122/3/3 123/3/3
f 125/3/3 117/3/3 103/3/3
f 125/3/3 118/3/3 117/3/3
f 126/3/3 104/3/3 118/3/3
f 126/3/3 118/3/3 125/3/3
f 127/3/3 102/3/3 101/3/3
f 128/3/3 102/3/3 127/3/3
f 131/2/3 130/2/3 129/2/3
f 132/2/3 130/2/3 131/2/3
f 133/2/3 130/2/3 132/2/3
f 134/2/3 130/2/3 133/2/3
f 135/2/3 133/2/3 132/2/3
f 136/2/3 130/2/3 134/2/3
f 137/2/3 135/2/3 132/2/3
f 137/2/3 136/2/3 135/2/3
f 138/2/3 130/2/3 136/2/3
f 138/2/3 136/2/3 137/2/3
f 139/2/3 137/2/3 132/2/3
f 140/2/3 130/2/3 138/2/3
f 141/2/3 131/2/3 129/2/3
f 142/2/3 140/2/3 139/2/3
f 142/2/3 139/2/3 132/2/3
f 143/2/3 141/2/3 129/2/3
f 143/2/3 142/2/3 141/2/3
f 144/2/3 140/2/3 142/2/3
f 144/2/3 142/2/3 143/2/3
f 144/2/3 130/2/3 140/2/3
f 147/3/3 146/3/3 145/3/3
f 148/3/3 146/3/3 147/3/3
f 149/1/4 150/1/4 151/1/4
f 151/1/4 150/1/4 152/1/4
f 149/1/4 151/1/4 153/1/4
f 152/1/4 150/1/4 154/1/4
f 149/1/4 153/1/4 155/1/4
f 153/1/4 154/1/4 155/1/4
f 154/1/4 150/1/4 156/1/4
f 155/1/4 154/1/4 156/1/4
f 157/1/4 158/1/4 159/1/4
f 159/1/4 158/1/4 160/1/4
f 157/1/4 159/1/4 161/1/4
f 160/1/4 158/1/4 162/1/4
f 157/1/4 161/1/4 163/1/4
f 161/1/4 162/1/4 163/1/4
f 162/1/4 158/1/4 164/1/4
f 163/1/4 162/1/4 164/1/4
f 165/3/4 166/3/4 167/3/4
f 167/3/4 166/3/4 168/3/4
f 169/3/4 170/3/4 172/3/4
f 171/2/4 172/2/4 173/2/4
f 172/3/4 170/3/4 174/3/4
f 173/2/4 172/2/4 174/2/4
f 174/3/4 170/3/4 175/3/4
f 175/3/4 170/3/4 176/3/4
f 179/3/5 178/3/5 177/3/5
f 180/3/5 178/3/5 179/3/5
f 183/2/5 182/2/5 181/2/5
f 184/2/5 182/2/5 183/2/5
f 185/2/5 183/2/5 181/2/5
f 186/2/5 182/2/5 184/2/5
f 187/2/5 185/2/5 181/2/5
f 187/2/5 186/2/5 185/2/5
f 188/2/5 182/2/5 186/2/5
f 188/2/5 186/2/5 187/2/5
f 191/3/5 190/3/5 189/3/5
f 192/3/5 190/3/5 191/3/5
f 195/1/5 194/1/5 193/1/5
f 196/1/5 194/1/5 195/1/5
f 201/3/5 198/3/5 197/3/5
f 202/3/5 198/3/5 201/3/5
f 203/3/5 200/3/5 199/3/5
f 204/3/5 200/3/5 203/3/5
f 209/1/5 206/1/5 205/1/5
f 210/1/5 206/1/5 209/1/5
f 211/1/5 208/1/5 207/1/5
f 212/1/5 208/1/5 211/1/5
f 217/1/5 214/1/5 213/1/5
f 218/1/5 214/1/5 217/1/5
f 219/1/5 216/1/5 215/1/5
f 220/1/5 216/1/5 219/1/5
f 223/3/5 222/3/5 221/3/5
f 224/3/5 222/3/5 223/3/5
f 225/3/5 223/3/5 221/3/5
f 226/3/5 223/3/5 225/3/5
f 227/3/5 222/3/5 224/3/5
f 228/3/5 222/3/5 227/3/5
f 229/1/6 230/1/6 231/1/6
f 231/1/6 230/1/6 232/1/6
f 233/3/6 234/3/6 235/3/6
f 235/3/6 234/3/6 236/3/6
f 237/1/6 238/1/6 241/1/6
f 241/1/6 238/1/6 242/1/6
f 239/1/6 240/1/6 243/1/6
f 243/1/6 240/1/6 244/1/6
f 245/1/6 246/1/6 249/1/6
f 249/1/6 246/1/6 250/1/6
f 247/1/6 248/1/6 251/1/6
f 251/1/6 248/1/6 252/1/6
f 253/3/6 254/3/6 257/3/6
f 257/3/6 254/3/6 258/3/6
f 255/3/6 256/3/6 259/3/6
f 259/3/6 256/3/6 260/3/6
f 261/3/6 262/3/6 263/3/6
f 263/3/6 262/3/6 264/3/6
