# MagicaVoxel @ Ephtracy

# group
o shower

# material
mtllib obj-2-shower.mtl
usemtl palette

# normals
vn 1 0 0
vn -1 0 0
vn 0 0 1
vn 0 0 -1
vn 0 -1 0
vn 0 1 0

# texcoords
vt 0.818359 0.5
vt 0.826172 0.5
vt 0.830078 0.5

# verts
v 0.7 0 0.65
v 0.7 0 -0.65
v 0.7 2 0.65
v 0.7 2 -0.65
v 0.5 0.8 0.15
v 0.5 0.8 5.96046e-008
v 0.5 0.85 0.1
v 0.5 0.85 0.05
v 0.5 0.9 0.1
v 0.5 0.9 0.05
v 0.5 0.95 0.15
v 0.5 0.95 5.96046e-008
v 0.4 1.7 0.15
v 0.4 1.7 0.1
v 0.4 1.7 5.96046e-008
v 0.4 1.7 -0.05
v 0.4 1.75 0.1
v 0.4 1.75 5.96046e-008
v 0.4 1.8 0.15
v 0.4 1.8 -0.05
v -0.15 0.05 0.2
v -0.15 0.05 -0.1
v -0.15 0.1 0.2
v -0.15 0.1 -0.1
v -0.55 0.1 0.6
v -0.55 0.1 -0.5
v -0.55 0.15 0.65
v -0.55 0.15 0.6
v -0.55 2 0.65
v -0.55 2 -0.5
v 0.55 0.1 0.6
v 0.55 0.1 -0.5
v 0.55 0.15 0.65
v 0.55 0.15 0.6
v 0.55 0.85 0.1
v 0.55 0.85 0.05
v 0.55 0.9 0.1
v 0.55 0.9 0.05
v 0.55 1.7 0.1
v 0.55 1.7 5.96046e-008
v 0.55 1.75 0.1
v 0.55 1.75 5.96046e-008
v 0.55 2 0.65
v 0.55 2 -0.5
v 0.4 0.8 0.15
v 0.4 0.8 5.96046e-008
v 0.4 0.95 0.15
v 0.4 0.95 5.96046e-008
v 0.2 1.7 0.15
v 0.2 1.7 -0.05
v 0.2 1.8 0.15
v 0.2 1.8 -0.05
v 0.15 0.05 0.2
v 0.15 0.05 -0.1
v 0.15 0.1 0.2
v 0.15 0.1 -0.1
v -0.7 0 0.65
v -0.7 0 -0.65
v -0.7 2 0.65
v -0.7 2 -0.65
v 0.7 0 0.65
v 0.7 2 0.65
v 0.55 0.15 0.65
v 0.55 2 0.65
v -0.55 0.15 0.65
v -0.55 2 0.65
v -0.7 0 0.65
v -0.7 2 0.65
v 0.5 0.8 0.15
v 0.5 0.95 0.15
v 0.4 0.8 0.15
v 0.4 0.95 0.15
v 0.4 1.7 0.15
v 0.4 1.8 0.15
v 0.2 1.7 0.15
v 0.2 1.8 0.15
v 0.55 0.85 0.1
v 0.55 0.9 0.1
v 0.55 1.7 0.1
v 0.55 1.75 0.1
v 0.5 0.85 0.1
v 0.5 0.9 0.1
v 0.4 1.7 0.1
v 0.4 1.75 0.1
v 0.15 0.05 -0.1
v 0.15 0.1 -0.1
v -0.15 0.05 -0.1
v -0.15 0.1 -0.1
v 0.55 0.1 -0.5
v 0.55 2 -0.5
v -0.55 0.1 -0.5
v -0.55 2 -0.5
v 0.55 0.1 0.6
v 0.55 0.15 0.6
v -0.55 0.1 0.6
v -0.55 0.15 0.6
v 0.15 0.05 0.2
v 0.15 0.1 0.2
v -0.15 0.05 0.2
v -0.15 0.1 0.2
v 0.55 0.85 0.05
v 0.55 0.9 0.05
v 0.5 0.85 0.05
v 0.5 0.9 0.05
v 0.55 1.7 5.96046e-008
v 0.55 1.75 5.96046e-008
v 0.5 0.8 5.96046e-008
v 0.5 0.95 5.96046e-008
v 0.4 0.8 5.96046e-008
v 0.4 0.95 5.96046e-008
v 0.4 1.7 5.96046e-008
v 0.4 1.75 5.96046e-008
v 0.4 1.7 -0.05
v 0.4 1.8 -0.05
v 0.2 1.7 -0.05
v 0.2 1.8 -0.05
v 0.7 0 -0.65
v 0.7 2 -0.65
v -0.7 0 -0.65
v -0.7 2 -0.65
v 0.7 0 0.65
v -0.7 0 0.65
v 0.15 0 0.2
v -0.15 0 0.2
v 0.15 0 -0.1
v -0.15 0 -0.1
v 0.7 0 -0.65
v -0.7 0 -0.65
v 0.5 0.8 0.15
v 0.4 0.8 0.15
v 0.5 0.8 5.96046e-008
v 0.4 0.8 5.96046e-008
v 0.55 0.85 0.1
v 0.5 0.85 0.1
v 0.55 0.85 0.05
v 0.5 0.85 0.05
v 0.4 1.7 0.15
v 0.2 1.7 0.15
v 0.55 1.7 0.1
v 0.4 1.7 0.1
v 0.55 1.7 5.96046e-008
v 0.4 1.7 5.96046e-008
v 0.4 1.7 -0.05
v 0.2 1.7 -0.05
v 0.15 0.05 0.2
v -0.15 0.05 0.2
v 0.15 0.05 -0.1
v -0.15 0.05 -0.1
v 0.55 0.1 0.6
v -0.55 0.1 0.6
v 0.15 0.1 0.2
v -0.15 0.1 0.2
v 0.15 0.1 -0.1
v -0.15 0.1 -0.1
v 0.55 0.1 -0.5
v -0.55 0.1 -0.5
v 0.55 0.15 0.65
v -0.55 0.15 0.65
v 0.55 0.15 0.6
v -0.55 0.15 0.6
v 0.55 0.9 0.1
v 0.5 0.9 0.1
v 0.55 0.9 0.05
v 0.5 0.9 0.05
v 0.5 0.95 0.15
v 0.4 0.95 0.15
v 0.5 0.95 5.96046e-008
v 0.4 0.95 5.96046e-008
v 0.55 1.75 0.1
v 0.4 1.75 0.1
v 0.55 1.75 5.96046e-008
v 0.4 1.75 5.96046e-008
v 0.4 1.8 0.15
v 0.2 1.8 0.15
v 0.4 1.8 -0.05
v 0.2 1.8 -0.05
v 0.7 2 0.65
v 0.55 2 0.65
v -0.55 2 0.65
v -0.7 2 0.65
v 0.55 2 -0.5
v -0.55 2 -0.5
v 0.7 2 -0.65
v -0.7 2 -0.65

# faces
f 1/3/1 2/3/1 3/3/1
f 3/3/1 2/3/1 4/3/1
f 5/1/1 6/1/1 7/1/1
f 7/1/1 6/1/1 8/1/1
f 5/1/1 7/1/1 9/1/1
f 8/1/1 6/1/1 10/1/1
f 5/1/1 9/1/1 11/1/1
f 9/1/1 10/1/1 11/1/1
f 10/1/1 6/1/1 12/1/1
f 11/1/1 10/1/1 12/1/1
f 13/1/1 14/1/1 17/1/1
f 15/1/1 16/1/1 18/1/1
f 13/1/1 17/1/1 19/1/1
f 17/1/1 18/1/1 19/1/1
f 18/1/1 16/1/1 20/1/1
f 19/1/1 18/1/1 20/1/1
f 21/3/1 22/3/1 23/3/1
f 23/3/1 22/3/1 24/3/1
f 25/3/1 26/3/1 28/3/1
f 27/3/1 28/3/1 29/3/1
f 28/3/1 26/3/1 30/3/1
f 29/3/1 28/3/1 30/3/1
f 34/3/2 32/3/2 31/3/2
f 35/3/2 32/3/2 34/3/2
f 35/3/2 34/3/2 33/3/2
f 36/3/2 32/3/2 35/3/2
f 37/3/2 35/3/2 33/3/2
f 38/3/2 32/3/2 36/3/2
f 39/3/2 37/3/2 33/3/2
f 39/3/2 38/3/2 37/3/2
f 40/3/2 32/3/2 38/3/2
f 40/3/2 38/3/2 39/3/2
f 41/3/2 39/3/2 33/3/2
f 42/3/2 32/3/2 40/3/2
f 43/3/2 41/3/2 33/3/2
f 43/3/2 42/3/2 41/3/2
f 44/3/2 32/3/2 42/3/2
f 44/3/2 42/3/2 43/3/2
f 47/1/2 46/1/2 45/1/2
f 48/1/2 46/1/2 47/1/2
f 51/1/2 50/1/2 49/1/2
f 52/1/2 50/1/2 51/1/2
f 55/3/2 54/3/2 53/3/2
f 56/3/2 54/3/2 55/3/2
f 59/3/2 58/3/2 57/3/2
f 60/3/2 58/3/2 59/3/2
f 61/3/3 62/3/3 63/3/3
f 63/3/3 62/3/3 64/3/3
f 61/3/3 63/3/3 65/3/3
f 61/3/3 65/3/3 67/3/3
f 65/3/3 66/3/3 67/3/3
f 67/3/3 66/3/3 68/3/3
f 69/1/3 70/1/3 71/1/3
f 71/1/3 70/1/3 72/1/3
f 73/1/3 74/1/3 75/1/3
f 75/1/3 74/1/3 76/1/3
f 77/1/3 78/1/3 81/1/3
f 81/1/3 78/1/3 82/1/3
f 79/1/3 80/1/3 83/1/3
f 83/1/3 80/1/3 84/1/3
f 85/3/3 86/3/3 87/3/3
f 87/3/3 86/3/3 88/3/3
f 89/3/3 90/3/3 91/3/3
f 91/3/3 90/3/3 92/3/3
f 95/3/4 94/3/4 93/3/4
f 96/3/4 94/3/4 95/3/4
f 99/3/4 98/3/4 97/3/4
f 100/3/4 98/3/4 99/3/4
f 103/1/4 102/1/4 101/1/4
f 104/1/4 102/1/4 103/1/4
f 109/1/4 108/1/4 107/1/4
f 110/1/4 108/1/4 109/1/4
f 111/1/4 106/1/4 105/1/4
f 112/1/4 106/1/4 111/1/4
f 115/1/4 114/1/4 113/1/4
f 116/1/4 114/1/4 115/1/4
f 119/3/4 118/3/4 117/3/4
f 120/3/4 118/3/4 119/3/4
f 121/3/5 122/3/5 123/3/5
f 123/3/5 122/3/5 124/3/5
f 121/3/5 123/3/5 125/3/5
f 123/2/5 124/2/5 125/2/5
f 124/3/5 122/3/5 126/3/5
f 125/2/5 124/2/5 126/2/5
f 121/3/5 125/3/5 127/3/5
f 125/3/5 126/3/5 127/3/5
f 126/3/5 122/3/5 128/3/5
f 127/3/5 126/3/5 128/3/5
f 129/1/5 130/1/5 131/1/5
f 131/1/5 130/1/5 132/1/5
f 133/1/5 134/1/5 135/1/5
f 135/1/5 134/1/5 136/1/5
f 137/1/5 138/1/5 140/1/5
f 139/1/5 140/1/5 141/1/5
f 140/1/5 138/1/5 142/1/5
f 141/1/5 140/1/5 142/1/5
f 142/1/5 138/1/5 143/1/5
f 143/1/5 138/1/5 144/1/5
f 147/2/6 146/2/6 145/2/6
f 148/2/6 146/2/6 147/2/6
f 151/3/6 150/3/6 149/3/6
f 152/3/6 150/3/6 151/3/6
f 153/3/6 151/3/6 149/3/6
f 154/3/6 150/3/6 152/3/6
f 155/3/6 153/3/6 149/3/6
f 155/3/6 154/3/6 153/3/6
f 156/3/6 150/3/6 154/3/6
f 156/3/6 154/3/6 155/3/6
f 159/3/6 158/3/6 157/3/6
f 160/3/6 158/3/6 159/3/6
f 163/1/6 162/1/6 161/1/6
f 164/1/6 162/1/6 163/1/6
f 167/1/6 166/1/6 165/1/6
f 168/1/6 166/1/6 167/1/6
f 171/1/6 170/1/6 169/1/6
f 172/1/6 170/1/6 171/1/6
f 175/1/6 174/1/6 173/1/6
f 176/1/6 174/1/6 175/1/6
f 181/3/6 178/3/6 177/3/6
f 182/3/6 180/3/6 179/3/6
f 183/3/6 181/3/6 177/3/6
f 183/3/6 182/3/6 181/3/6
f 184/3/6 180/3/6 182/3/6
f 184/3/6 182/3/6 183/3/6
