# MagicaVoxel @ Ephtracy

# group
o toilet

# material
mtllib obj-6-toilet.mtl
usemtl palette

# normals
vn -1 0 0
vn 1 0 0
vn 0 0 1
vn 0 0 -1
vn 0 -1 0
vn 0 1 0

# texcoords
vt 0.818359 0.5
vt 0.826172 0.5
vt 0.830078 0.5
vt 0.833984 0.5

# verts
v -0.3 0.8 0
v -0.3 0.8 -0.05
v -0.3 0.85 0
v -0.3 0.85 -0.05
v -0.25 0.9 -0.05
v -0.25 0.9 -0.4
v -0.25 1 -0.05
v -0.25 1 -0.4
v -0.2 0.25 0.4
v -0.2 0.25 -0.05
v -0.2 0.4 0.4
v -0.2 0.4 -0.05
v -0.2 0.45 0.4
v -0.2 0.45 -0.05
v -0.2 0.5 0.4
v -0.2 0.5 -0.05
v -0.2 0.55 -0.1
v -0.2 0.55 -0.4
v -0.2 0.9 -0.1
v -0.2 0.9 -0.4
v -0.15 0.4 0.35
v -0.15 0.4 0
v -0.15 0.45 0.35
v -0.15 0.45 0
v -0.15 0.8 -0.05
v -0.15 0.8 -0.1
v -0.15 0.85 -0.05
v -0.15 0.85 -0.1
v -0.1 0 0.25
v -0.1 0 -0.25
v -0.1 0.05 0.25
v -0.1 0.05 -0.25
v -0.1 0.25 -0.05
v -0.1 0.25 -0.25
v -0.1 0.4 0
v -0.1 0.4 -0.05
v -0.1 0.45 0
v -0.1 0.45 -0.05
v -0.1 0.5 -0.05
v -0.1 0.5 -0.1
v -0.1 0.55 -0.1
v -0.1 0.55 -0.25
v -0.05 0.05 0.2
v -0.05 0.05 -0.2
v -0.05 0.25 0.2
v -0.05 0.25 -0.2
v 0.2 0.35 0.3
v 0.2 0.35 0.05
v 0.2 0.4 0.3
v 0.2 0.4 0.05
v 0.2 0.45 0.3
v 0.2 0.45 0.05
v 0.2 0.5 0.3
v 0.2 0.5 0.05
v -0.1 0.35 0.3
v -0.1 0.35 0.05
v -0.1 0.4 0.3
v -0.1 0.4 0.05
v -0.1 0.45 0.3
v -0.1 0.45 0.05
v -0.1 0.5 0.3
v -0.1 0.5 0.05
v -0.1 0.8 0
v -0.1 0.8 -0.1
v -0.1 0.85 0
v -0.1 0.85 -0.1
v 0.15 0.05 0.2
v 0.15 0.05 -0.2
v 0.15 0.25 0.2
v 0.15 0.25 -0.2
v 0.2 0 0.25
v 0.2 0 -0.25
v 0.2 0.05 0.25
v 0.2 0.05 -0.25
v 0.2 0.25 -0.05
v 0.2 0.25 -0.25
v 0.2 0.4 0
v 0.2 0.4 -0.05
v 0.2 0.45 0
v 0.2 0.45 -0.05
v 0.2 0.5 -0.05
v 0.2 0.5 -0.1
v 0.2 0.55 -0.1
v 0.2 0.55 -0.25
v 0.25 0.4 0.35
v 0.25 0.4 0
v 0.25 0.45 0.35
v 0.25 0.45 0
v 0.3 0.25 0.4
v 0.3 0.25 -0.05
v 0.3 0.4 0.4
v 0.3 0.4 -0.05
v 0.3 0.45 0.4
v 0.3 0.45 -0.05
v 0.3 0.5 0.4
v 0.3 0.5 -0.05
v 0.3 0.55 -0.1
v 0.3 0.55 -0.4
v 0.3 0.9 -0.1
v 0.3 0.9 -0.4
v 0.35 0.9 -0.05
v 0.35 0.9 -0.4
v 0.35 1 -0.05
v 0.35 1 -0.4
v -0.2 0.25 0.4
v -0.2 0.4 0.4
v -0.2 0.45 0.4
v -0.2 0.5 0.4
v 0.3 0.25 0.4
v 0.3 0.4 0.4
v 0.3 0.45 0.4
v 0.3 0.5 0.4
v -0.15 0.4 0.35
v -0.15 0.45 0.35
v 0.25 0.4 0.35
v 0.25 0.45 0.35
v -0.1 0 0.25
v -0.1 0.05 0.25
v 0.2 0 0.25
v 0.2 0.05 0.25
v -0.05 0.05 0.2
v -0.05 0.25 0.2
v 0.15 0.05 0.2
v 0.15 0.25 0.2
v -0.1 0.35 0.05
v -0.1 0.4 0.05
v -0.1 0.45 0.05
v -0.1 0.5 0.05
v 0.2 0.35 0.05
v 0.2 0.4 0.05
v 0.2 0.45 0.05
v 0.2 0.5 0.05
v -0.3 0.8 0
v -0.3 0.85 0
v -0.1 0.8 0
v -0.1 0.85 0
v -0.25 0.9 -0.05
v -0.25 1 -0.05
v 0.35 0.9 -0.05
v 0.35 1 -0.05
v -0.2 0.55 -0.1
v -0.2 0.9 -0.1
v -0.15 0.8 -0.1
v -0.15 0.85 -0.1
v -0.1 0.5 -0.1
v -0.1 0.55 -0.1
v -0.1 0.8 -0.1
v -0.1 0.85 -0.1
v 0.2 0.5 -0.1
v 0.2 0.55 -0.1
v 0.3 0.55 -0.1
v 0.3 0.9 -0.1
v -0.1 0.35 0.3
v -0.1 0.4 0.3
v -0.1 0.45 0.3
v -0.1 0.5 0.3
v 0.2 0.35 0.3
v 0.2 0.4 0.3
v 0.2 0.45 0.3
v 0.2 0.5 0.3
v -0.15 0.4 0
v -0.15 0.45 0
v -0.1 0.4 0
v -0.1 0.45 0
v 0.2 0.4 0
v 0.2 0.45 0
v 0.25 0.4 0
v 0.25 0.45 0
v -0.3 0.8 -0.05
v -0.3 0.85 -0.05
v -0.2 0.25 -0.05
v -0.2 0.4 -0.05
v -0.2 0.45 -0.05
v -0.2 0.5 -0.05
v -0.15 0.8 -0.05
v -0.15 0.85 -0.05
v -0.1 0.25 -0.05
v -0.1 0.4 -0.05
v -0.1 0.45 -0.05
v -0.1 0.5 -0.05
v 0.2 0.25 -0.05
v 0.2 0.4 -0.05
v 0.2 0.45 -0.05
v 0.2 0.5 -0.05
v 0.3 0.25 -0.05
v 0.3 0.4 -0.05
v 0.3 0.45 -0.05
v 0.3 0.5 -0.05
v -0.05 0.05 -0.2
v -0.05 0.25 -0.2
v 0.15 0.05 -0.2
v 0.15 0.25 -0.2
v -0.1 0 -0.25
v -0.1 0.05 -0.25
v -0.1 0.25 -0.25
v -0.1 0.55 -0.25
v 0.2 0 -0.25
v 0.2 0.05 -0.25
v 0.2 0.25 -0.25
v 0.2 0.55 -0.25
v -0.25 0.9 -0.4
v -0.25 1 -0.4
v -0.2 0.55 -0.4
v -0.2 0.9 -0.4
v 0.3 0.55 -0.4
v 0.3 0.9 -0.4
v 0.35 0.9 -0.4
v 0.35 1 -0.4
v -0.1 0 0.25
v 0.2 0 0.25
v -0.1 0 -0.25
v 0.2 0 -0.25
v -0.2 0.25 0.4
v 0.3 0.25 0.4
v -0.05 0.25 0.2
v 0.15 0.25 0.2
v -0.2 0.25 -0.05
v -0.1 0.25 -0.05
v 0.2 0.25 -0.05
v 0.3 0.25 -0.05
v -0.05 0.25 -0.2
v 0.15 0.25 -0.2
v -0.1 0.25 -0.25
v 0.2 0.25 -0.25
v -0.2 0.45 0.4
v 0.3 0.45 0.4
v -0.15 0.45 0.35
v 0.25 0.45 0.35
v -0.15 0.45 0
v -0.1 0.45 0
v 0.2 0.45 0
v 0.25 0.45 0
v -0.2 0.45 -0.05
v -0.1 0.45 -0.05
v 0.2 0.45 -0.05
v 0.3 0.45 -0.05
v -0.2 0.55 -0.1
v -0.1 0.55 -0.1
v 0.2 0.55 -0.1
v 0.3 0.55 -0.1
v -0.1 0.55 -0.25
v 0.2 0.55 -0.25
v -0.2 0.55 -0.4
v 0.3 0.55 -0.4
v -0.3 0.8 0
v -0.1 0.8 0
v -0.3 0.8 -0.05
v -0.15 0.8 -0.05
v -0.15 0.8 -0.1
v -0.1 0.8 -0.1
v -0.25 0.9 -0.05
v 0.35 0.9 -0.05
v -0.2 0.9 -0.1
v 0.3 0.9 -0.1
v -0.25 0.9 -0.4
v -0.2 0.9 -0.4
v 0.3 0.9 -0.4
v 0.35 0.9 -0.4
v -0.1 0.05 0.25
v 0.2 0.05 0.25
v -0.05 0.05 0.2
v 0.15 0.05 0.2
v -0.05 0.05 -0.2
v 0.15 0.05 -0.2
v -0.1 0.05 -0.25
v 0.2 0.05 -0.25
v -0.1 0.35 0.3
v 0.2 0.35 0.3
v -0.1 0.35 0.05
v 0.2 0.35 0.05
v -0.2 0.4 0.4
v 0.3 0.4 0.4
v -0.15 0.4 0.35
v 0.25 0.4 0.35
v -0.15 0.4 0
v -0.1 0.4 0
v 0.2 0.4 0
v 0.25 0.4 0
v -0.2 0.4 -0.05
v -0.1 0.4 -0.05
v 0.2 0.4 -0.05
v 0.3 0.4 -0.05
v -0.2 0.5 0.4
v 0.3 0.5 0.4
v -0.1 0.5 0.3
v 0.2 0.5 0.3
v -0.1 0.5 0.05
v 0.2 0.5 0.05
v -0.2 0.5 -0.05
v -0.1 0.5 -0.05
v 0.2 0.5 -0.05
v 0.3 0.5 -0.05
v -0.1 0.5 -0.1
v 0.2 0.5 -0.1
v -0.3 0.85 0
v -0.1 0.85 0
v -0.3 0.85 -0.05
v -0.15 0.85 -0.05
v -0.15 0.85 -0.1
v -0.1 0.85 -0.1
v -0.25 1 -0.05
v 0.35 1 -0.05
v -0.25 1 -0.4
v 0.35 1 -0.4

# faces
f 3/1/1 2/1/1 1/1/1
f 4/1/1 2/1/1 3/1/1
f 7/3/1 6/3/1 5/3/1
f 8/3/1 6/3/1 7/3/1
f 11/3/1 10/3/1 9/3/1
f 12/3/1 10/3/1 11/3/1
f 15/3/1 14/3/1 13/3/1
f 16/3/1 14/3/1 15/3/1
f 19/3/1 18/3/1 17/3/1
f 20/3/1 18/3/1 19/3/1
f 23/4/1 22/4/1 21/4/1
f 24/4/1 22/4/1 23/4/1
f 27/1/1 26/1/1 25/1/1
f 28/1/1 26/1/1 27/1/1
f 31/3/1 30/3/1 29/3/1
f 32/3/1 30/3/1 31/3/1
f 36/3/1 34/3/1 33/3/1
f 37/3/1 36/3/1 35/3/1
f 38/3/1 34/3/1 36/3/1
f 38/3/1 36/3/1 37/3/1
f 39/3/1 34/3/1 38/3/1
f 40/3/1 34/3/1 39/3/1
f 41/3/1 34/3/1 40/3/1
f 42/3/1 34/3/1 41/3/1
f 45/3/1 44/3/1 43/3/1
f 46/3/1 44/3/1 45/3/1
f 49/3/1 48/3/1 47/3/1
f 50/3/1 48/3/1 49/3/1
f 51/4/1 50/4/1 49/4/1
f 52/4/1 50/4/1 51/4/1
f 53/3/1 52/3/1 51/3/1
f 54/3/1 52/3/1 53/3/1
f 55/3/2 56/3/2 57/3/2
f 57/3/2 56/3/2 58/3/2
f 57/4/2 58/4/2 59/4/2
f 59/4/2 58/4/2 60/4/2
f 59/3/2 60/3/2 61/3/2
f 61/3/2 60/3/2 62/3/2
f 63/1/2 64/1/2 65/1/2
f 65/1/2 64/1/2 66/1/2
f 67/3/2 68/3/2 69/3/2
f 69/3/2 68/3/2 70/3/2
f 71/3/2 72/3/2 73/3/2
f 73/3/2 72/3/2 74/3/2
f 75/3/2 76/3/2 78/3/2
f 77/3/2 78/3/2 79/3/2
f 78/3/2 76/3/2 80/3/2
f 79/3/2 78/3/2 80/3/2
f 80/3/2 76/3/2 81/3/2
f 81/3/2 76/3/2 82/3/2
f 82/3/2 76/3/2 83/3/2
f 83/3/2 76/3/2 84/3/2
f 85/4/2 86/4/2 87/4/2
f 87/4/2 86/4/2 88/4/2
f 89/3/2 90/3/2 91/3/2
f 91/3/2 90/3/2 92/3/2
f 93/3/2 94/3/2 95/3/2
f 95/3/2 94/3/2 96/3/2
f 97/3/2 98/3/2 99/3/2
f 99/3/2 98/3/2 100/3/2
f 101/3/2 102/3/2 103/3/2
f 103/3/2 102/3/2 104/3/2
f 109/3/3 106/3/3 105/3/3
f 110/3/3 106/3/3 109/3/3
f 111/3/3 108/3/3 107/3/3
f 112/3/3 108/3/3 111/3/3
f 115/4/3 114/4/3 113/4/3
f 116/4/3 114/4/3 115/4/3
f 119/3/3 118/3/3 117/3/3
f 120/3/3 118/3/3 119/3/3
f 123/3/3 122/3/3 121/3/3
f 124/3/3 122/3/3 123/3/3
f 129/3/3 126/3/3 125/3/3
f 130/4/3 127/4/3 126/4/3
f 130/3/3 126/3/3 129/3/3
f 131/3/3 128/3/3 127/3/3
f 131/4/3 127/4/3 130/4/3
f 132/3/3 128/3/3 131/3/3
f 135/1/3 134/1/3 133/1/3
f 136/1/3 134/1/3 135/1/3
f 139/3/3 138/3/3 137/3/3
f 140/3/3 138/3/3 139/3/3
f 143/3/3 142/3/3 141/3/3
f 144/3/3 142/3/3 143/3/3
f 146/3/3 143/3/3 141/3/3
f 147/3/3 143/3/3 146/3/3
f 148/3/3 142/3/3 144/3/3
f 149/3/3 147/3/3 146/3/3
f 149/3/3 148/3/3 147/3/3
f 149/3/3 146/3/3 145/3/3
f 150/3/3 148/3/3 149/3/3
f 151/3/3 148/3/3 150/3/3
f 152/3/3 142/3/3 148/3/3
f 152/3/3 148/3/3 151/3/3
f 153/3/4 154/3/4 157/3/4
f 154/4/4 155/4/4 158/4/4
f 157/3/4 154/3/4 158/3/4
f 155/3/4 156/3/4 159/3/4
f 158/4/4 155/4/4 159/4/4
f 159/3/4 156/3/4 160/3/4
f 161/4/4 162/4/4 163/4/4
f 163/4/4 162/4/4 164/4/4
f 165/4/4 166/4/4 167/4/4
f 167/4/4 166/4/4 168/4/4
f 169/1/4 170/1/4 175/1/4
f 175/1/4 170/1/4 176/1/4
f 171/3/4 172/3/4 177/3/4
f 177/3/4 172/3/4 178/3/4
f 173/3/4 174/3/4 179/3/4
f 179/3/4 174/3/4 180/3/4
f 181/3/4 182/3/4 185/3/4
f 185/3/4 182/3/4 186/3/4
f 183/3/4 184/3/4 187/3/4
f 187/3/4 184/3/4 188/3/4
f 189/3/4 190/3/4 191/3/4
f 191/3/4 190/3/4 192/3/4
f 193/3/4 194/3/4 197/3/4
f 197/3/4 194/3/4 198/3/4
f 195/3/4 196/3/4 199/3/4
f 199/3/4 196/3/4 200/3/4
f 201/3/4 202/3/4 204/3/4
f 203/3/4 204/3/4 205/3/4
f 204/3/4 202/3/4 206/3/4
f 205/3/4 204/3/4 206/3/4
f 206/3/4 202/3/4 207/3/4
f 207/3/4 202/3/4 208/3/4
f 211/3/5 210/3/5 209/3/5
f 212/3/5 210/3/5 211/3/5
f 215/3/5 214/3/5 213/3/5
f 216/3/5 214/3/5 215/3/5
f 217/3/5 215/3/5 213/3/5
f 218/3/5 215/3/5 217/3/5
f 219/3/5 214/3/5 216/3/5
f 220/3/5 214/3/5 219/3/5
f 221/3/5 215/3/5 218/3/5
f 222/3/5 219/3/5 216/3/5
f 223/3/5 221/3/5 218/3/5
f 223/3/5 222/3/5 221/3/5
f 224/3/5 219/3/5 222/3/5
f 224/3/5 222/3/5 223/3/5
f 227/3/5 226/3/5 225/3/5
f 228/3/5 226/3/5 227/3/5
f 229/3/5 227/3/5 225/3/5
f 232/3/5 226/3/5 228/3/5
f 233/3/5 230/3/5 229/3/5
f 233/3/5 229/3/5 225/3/5
f 234/3/5 230/3/5 233/3/5
f 235/3/5 232/3/5 231/3/5
f 236/3/5 226/3/5 232/3/5
f 236/3/5 232/3/5 235/3/5
f 241/3/5 238/3/5 237/3/5
f 242/3/5 240/3/5 239/3/5
f 243/3/5 241/3/5 237/3/5
f 243/3/5 242/3/5 241/3/5
f 244/3/5 240/3/5 242/3/5
f 244/3/5 242/3/5 243/3/5
f 247/1/5 246/1/5 245/1/5
f 248/1/5 246/1/5 247/1/5
f 249/1/5 246/1/5 248/1/5
f 250/1/5 246/1/5 249/1/5
f 253/3/5 252/3/5 251/3/5
f 254/3/5 252/3/5 253/3/5
f 255/3/5 253/3/5 251/3/5
f 256/3/5 253/3/5 255/3/5
f 257/3/5 252/3/5 254/3/5
f 258/3/5 252/3/5 257/3/5
f 259/3/6 260/3/6 261/3/6
f 261/3/6 260/3/6 262/3/6
f 259/3/6 261/3/6 263/3/6
f 262/3/6 260/3/6 264/3/6
f 259/3/6 263/3/6 265/3/6
f 263/3/6 264/3/6 265/3/6
f 264/3/6 260/3/6 266/3/6
f 265/3/6 264/3/6 266/3/6
f 267/2/6 268/2/6 269/2/6
f 269/2/6 268/2/6 270/2/6
f 271/3/6 272/3/6 273/3/6
f 273/3/6 272/3/6 274/3/6
f 271/3/6 273/3/6 275/3/6
f 274/3/6 272/3/6 278/3/6
f 275/3/6 276/3/6 279/3/6
f 271/3/6 275/3/6 279/3/6
f 279/3/6 276/3/6 280/3/6
f 277/3/6 278/3/6 281/3/6
f 278/3/6 272/3/6 282/3/6
f 281/3/6 278/3/6 282/3/6
f 283/3/6 284/3/6 285/3/6
f 285/3/6 284/3/6 286/3/6
f 283/3/6 285/3/6 287/3/6
f 286/3/6 284/3/6 288/3/6
f 283/3/6 287/3/6 289/3/6
f 287/3/6 288/3/6 289/3/6
f 289/3/6 288/3/6 290/3/6
f 288/3/6 284/3/6 291/3/6
f 290/3/6 288/3/6 291/3/6
f 291/3/6 284/3/6 292/3/6
f 290/3/6 291/3/6 293/3/6
f 293/3/6 291/3/6 294/3/6
f 295/1/6 296/1/6 297/1/6
f 297/1/6 296/1/6 298/1/6
f 298/1/6 296/1/6 299/1/6
f 299/1/6 296/1/6 300/1/6
f 301/3/6 302/3/6 303/3/6
f 303/3/6 302/3/6 304/3/6
