# MagicaVoxel @ Ephtracy

# group
o radio-body

# material
mtllib obj-6-radio-body.mtl
usemtl palette

# normals
vn -1 0 0
vn 1 0 0
vn 0 0 1
vn 0 0 -1
vn 0 -1 0
vn 0 1 0

# texcoords
vt 0.564453 0.5
vt 0.568359 0.5
vt 0.572266 0.5
vt 0.576172 0.5

# verts
v -0.35 0 0.1
v -0.35 0 -0.15
v -0.35 0.4 0.1
v -0.35 0.4 -0.15
v -0.3 0.05 0.15
v -0.3 0.05 0.1
v -0.3 0.2 0.15
v -0.3 0.2 0.1
v -0.15 0.4 0
v -0.15 0.4 -0.05
v -0.15 0.45 0
v -0.15 0.45 -0.05
v -0.1 0.1 0.15
v -0.1 0.1 0.1
v -0.1 0.15 0.15
v -0.1 0.15 0.1
v 0.05 0.1 0.15
v 0.05 0.1 0.1
v 0.05 0.15 0.15
v 0.05 0.15 0.1
v 0.15 0.05 0.15
v 0.15 0.05 0.1
v 0.15 0.2 0.15
v 0.15 0.2 0.1
v 0.15 0.25 0.1
v 0.15 0.25 0.05
v 0.15 0.35 0.1
v 0.15 0.35 0.05
v -0.15 0.05 0.15
v -0.15 0.05 0.1
v -0.15 0.2 0.15
v -0.15 0.2 0.1
v -0.15 0.25 0.1
v -0.15 0.25 0.05
v -0.15 0.35 0.1
v -0.15 0.35 0.05
v -0.05 0.1 0.15
v -0.05 0.1 0.1
v -0.05 0.15 0.15
v -0.05 0.15 0.1
v 0.1 0.1 0.15
v 0.1 0.1 0.1
v 0.1 0.15 0.15
v 0.1 0.15 0.1
v 0.15 0.4 0
v 0.15 0.4 -0.05
v 0.15 0.45 0
v 0.15 0.45 -0.05
v 0.3 0.05 0.15
v 0.3 0.05 0.1
v 0.3 0.2 0.15
v 0.3 0.2 0.1
v 0.35 0 0.1
v 0.35 0 -0.15
v 0.35 0.4 0.1
v 0.35 0.4 -0.15
v -0.3 0.05 0.15
v -0.3 0.2 0.15
v -0.15 0.05 0.15
v -0.15 0.2 0.15
v -0.1 0.1 0.15
v -0.1 0.15 0.15
v -0.05 0.1 0.15
v -0.05 0.15 0.15
v 0.05 0.1 0.15
v 0.05 0.15 0.15
v 0.1 0.1 0.15
v 0.1 0.15 0.15
v 0.15 0.05 0.15
v 0.15 0.2 0.15
v 0.3 0.05 0.15
v 0.3 0.2 0.15
v -0.35 0 0.1
v -0.35 0.4 0.1
v -0.3 0.05 0.1
v -0.3 0.2 0.1
v -0.15 0.05 0.1
v -0.15 0.2 0.1
v -0.15 0.25 0.1
v -0.15 0.35 0.1
v -0.1 0.1 0.1
v -0.1 0.15 0.1
v -0.05 0.1 0.1
v -0.05 0.15 0.1
v 0.05 0.1 0.1
v 0.05 0.15 0.1
v 0.1 0.1 0.1
v 0.1 0.15 0.1
v 0.15 0.05 0.1
v 0.15 0.2 0.1
v 0.15 0.25 0.1
v 0.15 0.35 0.1
v 0.3 0.05 0.1
v 0.3 0.2 0.1
v 0.35 0 0.1
v 0.35 0.4 0.1
v -0.15 0.25 0.05
v -0.15 0.35 0.05
v 0.15 0.25 0.05
v 0.15 0.35 0.05
v -0.15 0.4 0
v -0.15 0.45 0
v 0.15 0.4 0
v 0.15 0.45 0
v -0.15 0.4 -0.05
v -0.15 0.45 -0.05
v 0.15 0.4 -0.05
v 0.15 0.45 -0.05
v -0.35 0 -0.15
v -0.35 0.4 -0.15
v 0.35 0 -0.15
v 0.35 0.4 -0.15
v -0.35 0 0.1
v 0.35 0 0.1
v -0.35 0 -0.15
v 0.35 0 -0.15
v -0.3 0.05 0.15
v -0.15 0.05 0.15
v 0.15 0.05 0.15
v 0.3 0.05 0.15
v -0.3 0.05 0.1
v -0.15 0.05 0.1
v 0.15 0.05 0.1
v 0.3 0.05 0.1
v -0.1 0.1 0.15
v -0.05 0.1 0.15
v 0.05 0.1 0.15
v 0.1 0.1 0.15
v -0.1 0.1 0.1
v -0.05 0.1 0.1
v 0.05 0.1 0.1
v 0.1 0.1 0.1
v -0.15 0.35 0.1
v 0.15 0.35 0.1
v -0.15 0.35 0.05
v 0.15 0.35 0.05
v -0.1 0.15 0.15
v -0.05 0.15 0.15
v 0.05 0.15 0.15
v 0.1 0.15 0.15
v -0.1 0.15 0.1
v -0.05 0.15 0.1
v 0.05 0.15 0.1
v 0.1 0.15 0.1
v -0.3 0.2 0.15
v -0.15 0.2 0.15
v 0.15 0.2 0.15
v 0.3 0.2 0.15
v -0.3 0.2 0.1
v -0.15 0.2 0.1
v 0.15 0.2 0.1
v 0.3 0.2 0.1
v -0.15 0.25 0.1
v 0.15 0.25 0.1
v -0.15 0.25 0.05
v 0.15 0.25 0.05
v -0.35 0.4 0.1
v 0.35 0.4 0.1
v -0.15 0.4 0
v 0.15 0.4 0
v -0.15 0.4 -0.05
v 0.15 0.4 -0.05
v -0.35 0.4 -0.15
v 0.35 0.4 -0.15
v -0.15 0.45 0
v 0.15 0.45 0
v -0.15 0.45 -0.05
v 0.15 0.45 -0.05

# faces
f 3/1/1 2/1/1 1/1/1
f 4/1/1 2/1/1 3/1/1
f 7/2/1 6/2/1 5/2/1
f 8/2/1 6/2/1 7/2/1
f 11/4/1 10/4/1 9/4/1
f 12/4/1 10/4/1 11/4/1
f 15/4/1 14/4/1 13/4/1
f 16/4/1 14/4/1 15/4/1
f 19/4/1 18/4/1 17/4/1
f 20/4/1 18/4/1 19/4/1
f 23/2/1 22/2/1 21/2/1
f 24/2/1 22/2/1 23/2/1
f 27/1/1 26/1/1 25/1/1
f 28/1/1 26/1/1 27/1/1
f 29/2/2 30/2/2 31/2/2
f 31/2/2 30/2/2 32/2/2
f 33/1/2 34/1/2 35/1/2
f 35/1/2 34/1/2 36/1/2
f 37/4/2 38/4/2 39/4/2
f 39/4/2 38/4/2 40/4/2
f 41/4/2 42/4/2 43/4/2
f 43/4/2 42/4/2 44/4/2
f 45/4/2 46/4/2 47/4/2
f 47/4/2 46/4/2 48/4/2
f 49/2/2 50/2/2 51/2/2
f 51/2/2 50/2/2 52/2/2
f 53/1/2 54/1/2 55/1/2
f 55/1/2 54/1/2 56/1/2
f 59/2/3 58/2/3 57/2/3
f 60/2/3 58/2/3 59/2/3
f 63/4/3 62/4/3 61/4/3
f 64/4/3 62/4/3 63/4/3
f 67/4/3 66/4/3 65/4/3
f 68/4/3 66/4/3 67/4/3
f 71/2/3 70/2/3 69/2/3
f 72/2/3 70/2/3 71/2/3
f 75/1/3 74/1/3 73/1/3
f 76/1/3 74/1/3 75/1/3
f 77/1/3 75/1/3 73/1/3
f 78/1/3 74/1/3 76/1/3
f 79/1/3 74/1/3 78/1/3
f 80/1/3 74/1/3 79/1/3
f 81/1/3 78/1/3 77/1/3
f 81/1/3 79/1/3 78/1/3
f 82/1/3 79/1/3 81/1/3
f 83/1/3 81/1/3 77/1/3
f 84/1/3 79/1/3 82/1/3
f 85/1/3 83/1/3 77/1/3
f 85/1/3 84/1/3 83/1/3
f 86/1/3 79/1/3 84/1/3
f 86/1/3 84/1/3 85/1/3
f 87/1/3 85/1/3 77/1/3
f 88/1/3 79/1/3 86/1/3
f 89/1/3 77/1/3 73/1/3
f 89/1/3 88/1/3 87/1/3
f 89/1/3 87/1/3 77/1/3
f 90/1/3 79/1/3 88/1/3
f 90/1/3 88/1/3 89/1/3
f 91/1/3 79/1/3 90/1/3
f 92/1/3 74/1/3 80/1/3
f 93/1/3 89/1/3 73/1/3
f 94/1/3 92/1/3 91/1/3
f 94/1/3 91/1/3 90/1/3
f 95/1/3 93/1/3 73/1/3
f 95/1/3 94/1/3 93/1/3
f 96/1/3 92/1/3 94/1/3
f 96/1/3 94/1/3 95/1/3
f 96/1/3 74/1/3 92/1/3
f 99/3/3 98/3/3 97/3/3
f 100/3/3 98/3/3 99/3/3
f 103/4/3 102/4/3 101/4/3
f 104/4/3 102/4/3 103/4/3
f 105/4/4 106/4/4 107/4/4
f 107/4/4 106/4/4 108/4/4
f 109/1/4 110/1/4 111/1/4
f 111/1/4 110/1/4 112/1/4
f 115/1/5 114/1/5 113/1/5
f 116/1/5 114/1/5 115/1/5
f 121/2/5 118/2/5 117/2/5
f 122/2/5 118/2/5 121/2/5
f 123/2/5 120/2/5 119/2/5
f 124/2/5 120/2/5 123/2/5
f 129/4/5 126/4/5 125/4/5
f 130/4/5 126/4/5 129/4/5
f 131/4/5 128/4/5 127/4/5
f 132/4/5 128/4/5 131/4/5
f 135/1/5 134/1/5 133/1/5
f 136/1/5 134/1/5 135/1/5
f 137/4/6 138/4/6 141/4/6
f 141/4/6 138/4/6 142/4/6
f 139/4/6 140/4/6 143/4/6
f 143/4/6 140/4/6 144/4/6
f 145/2/6 146/2/6 149/2/6
f 149/2/6 146/2/6 150/2/6
f 147/2/6 148/2/6 151/2/6
f 151/2/6 148/2/6 152/2/6
f 153/1/6 154/1/6 155/1/6
f 155/1/6 154/1/6 156/1/6
f 157/1/6 158/1/6 159/1/6
f 159/1/6 158/1/6 160/1/6
f 157/1/6 159/1/6 161/1/6
f 160/1/6 158/1/6 162/1/6
f 157/1/6 161/1/6 163/1/6
f 161/1/6 162/1/6 163/1/6
f 162/1/6 158/1/6 164/1/6
f 163/1/6 162/1/6 164/1/6
f 165/4/6 166/4/6 167/4/6
f 167/4/6 166/4/6 168/4/6
