# MagicaVoxel @ Ephtracy

# group
o sandwich

# material
mtllib obj-1-sandwich.mtl
usemtl palette

# normals
vn -1 0 0
vn 1 0 0
vn 0 0 1
vn 0 0 -1
vn 0 -1 0
vn 0 1 0

# texcoords
vt 0.521484 0.5
vt 0.525391 0.5
vt 0.529297 0.5

# verts
v -0.2 0.05 0.15
v -0.2 0.05 -0.2
v -0.2 0.1 0.15
v -0.2 0.1 -0.2
v -0.15 0 0.1
v -0.15 0 -0.15
v -0.15 0.05 0.1
v -0.15 0.05 -0.15
v -0.15 0.1 0.1
v -0.15 0.1 -0.15
v -0.15 0.15 0.1
v -0.15 0.15 -0.15
v 0.2 0 0.1
v 0.2 0 -0.15
v 0.2 0.05 0.1
v 0.2 0.05 -0.15
v 0.2 0.1 0.1
v 0.2 0.1 -0.15
v 0.2 0.15 0.1
v 0.2 0.15 -0.15
v 0.25 0.05 0.15
v 0.25 0.05 -0.2
v 0.25 0.1 0.15
v 0.25 0.1 -0.2
v -0.2 0.05 0.15
v -0.2 0.1 0.15
v 0.25 0.05 0.15
v 0.25 0.1 0.15
v -0.15 0 0.1
v -0.15 0.05 0.1
v -0.15 0.1 0.1
v -0.15 0.15 0.1
v 0.2 0 0.1
v 0.2 0.05 0.1
v 0.2 0.1 0.1
v 0.2 0.15 0.1
v -0.15 0 -0.15
v -0.15 0.05 -0.15
v -0.15 0.1 -0.15
v -0.15 0.15 -0.15
v 0.2 0 -0.15
v 0.2 0.05 -0.15
v 0.2 0.1 -0.15
v 0.2 0.15 -0.15
v -0.2 0.05 -0.2
v -0.2 0.1 -0.2
v 0.25 0.05 -0.2
v 0.25 0.1 -0.2
v -0.15 0 0.1
v 0.2 0 0.1
v 0 0 0.05
v 0.15 0 0.05
v 0 0 -0.1
v 0.15 0 -0.1
v -0.15 0 -0.15
v 0.2 0 -0.15
v -0.2 0.05 0.15
v 0.25 0.05 0.15
v -0.15 0.05 0.1
v 0.2 0.05 0.1
v -0.15 0.05 -0.15
v 0.2 0.05 -0.15
v -0.2 0.05 -0.2
v 0.25 0.05 -0.2
v -0.2 0.1 0.15
v 0.25 0.1 0.15
v -0.15 0.1 0.1
v 0.2 0.1 0.1
v -0.15 0.1 -0.15
v 0.2 0.1 -0.15
v -0.2 0.1 -0.2
v 0.25 0.1 -0.2
v -0.15 0.15 0.1
v 0.2 0.15 0.1
v -0.1 0.15 0.05
v 0.15 0.15 0.05
v -0.1 0.15 -0.1
v 0.15 0.15 -0.1
v -0.15 0.15 -0.15
v 0.2 0.15 -0.15

# faces
f 3/1/1 2/1/1 1/1/1
f 4/1/1 2/1/1 3/1/1
f 7/3/1 6/3/1 5/3/1
f 8/3/1 6/3/1 7/3/1
f 11/3/1 10/3/1 9/3/1
f 12/3/1 10/3/1 11/3/1
f 13/3/2 14/3/2 15/3/2
f 15/3/2 14/3/2 16/3/2
f 17/3/2 18/3/2 19/3/2
f 19/3/2 18/3/2 20/3/2
f 21/1/2 22/1/2 23/1/2
f 23/1/2 22/1/2 24/1/2
f 27/1/3 26/1/3 25/1/3
f 28/1/3 26/1/3 27/1/3
f 33/3/3 30/3/3 29/3/3
f 34/3/3 30/3/3 33/3/3
f 35/3/3 32/3/3 31/3/3
f 36/3/3 32/3/3 35/3/3
f 37/3/4 38/3/4 41/3/4
f 41/3/4 38/3/4 42/3/4
f 39/3/4 40/3/4 43/3/4
f 43/3/4 40/3/4 44/3/4
f 45/1/4 46/1/4 47/1/4
f 47/1/4 46/1/4 48/1/4
f 51/3/5 50/3/5 49/3/5
f 52/3/5 50/3/5 51/3/5
f 53/3/5 51/3/5 49/3/5
f 53/2/5 52/2/5 51/2/5
f 54/3/5 50/3/5 52/3/5
f 54/2/5 52/2/5 53/2/5
f 55/3/5 53/3/5 49/3/5
f 55/3/5 54/3/5 53/3/5
f 56/3/5 50/3/5 54/3/5
f 56/3/5 54/3/5 55/3/5
f 59/1/5 58/1/5 57/1/5
f 60/1/5 58/1/5 59/1/5
f 61/1/5 59/1/5 57/1/5
f 62/1/5 58/1/5 60/1/5
f 63/1/5 61/1/5 57/1/5
f 63/1/5 62/1/5 61/1/5
f 64/1/5 58/1/5 62/1/5
f 64/1/5 62/1/5 63/1/5
f 65/1/6 66/1/6 67/1/6
f 67/1/6 66/1/6 68/1/6
f 65/1/6 67/1/6 69/1/6
f 68/1/6 66/1/6 70/1/6
f 65/1/6 69/1/6 71/1/6
f 69/1/6 70/1/6 71/1/6
f 70/1/6 66/1/6 72/1/6
f 71/1/6 70/1/6 72/1/6
f 73/3/6 74/3/6 75/3/6
f 75/3/6 74/3/6 76/3/6
f 73/3/6 75/3/6 77/3/6
f 75/2/6 76/2/6 77/2/6
f 76/3/6 74/3/6 78/3/6
f 77/2/6 76/2/6 78/2/6
f 73/3/6 77/3/6 79/3/6
f 77/3/6 78/3/6 79/3/6
f 78/3/6 74/3/6 80/3/6
f 79/3/6 78/3/6 80/3/6
