# MagicaVoxel @ Ephtracy

# group
o couch

# material
mtllib obj-11-couch.mtl
usemtl palette

# normals
vn -1 0 0
vn 1 0 0
vn 0 0 1
vn 0 0 -1
vn 0 -1 0
vn 0 1 0

# texcoords
vt 0.658203 0.5
vt 0.662109 0.5
vt 0.666016 0.5

# verts
v -1.25 0.1 0.55
v -1.25 0.1 -0.55
v -1.25 0.75 0.55
v -1.25 0.75 -0.3
v -1.25 1.05 -0.3
v -1.25 1.05 -0.55
v -1.2 0 0.5
v -1.2 0 0.4
v -1.2 0 -0.4
v -1.2 0 -0.5
v -1.2 0.1 0.5
v -1.2 0.1 0.4
v -1.2 0.1 -0.4
v -1.2 0.1 -0.5
v -1 0.1 0.55
v -1 0.1 0.5
v -1 0.35 0.55
v -1 0.35 0.5
v -1 0.4 0.55
v -1 0.4 0.5
v -1 0.5 0.5
v -1 0.5 -0.3
v -1 0.55 0.55
v -1 0.55 -0.25
v -1 1.05 -0.3
v -1 1.05 -0.45
v -1 1.15 -0.25
v -1 1.15 -0.45
v 0.0500001 0.4 0.55
v 0.0500001 0.4 0.5
v 0.0500001 0.5 0.5
v 0.0500001 0.5 -0.3
v 0.0500001 0.55 0.55
v 0.0500001 0.55 -0.25
v 0.0500001 1.05 -0.3
v 0.0500001 1.05 -0.45
v 0.0500001 1.15 -0.25
v 0.0500001 1.15 -0.45
v 1.05 0.1 0.55
v 1.05 0.1 0.5
v 1.05 0.5 0.5
v 1.05 0.5 -0.3
v 1.05 0.75 0.55
v 1.05 0.75 -0.3
v 1.15 0 0.5
v 1.15 0 0.4
v 1.15 0 -0.4
v 1.15 0 -0.5
v 1.15 0.1 0.5
v 1.15 0.1 0.4
v 1.15 0.1 -0.4
v 1.15 0.1 -0.5
v -1.1 0 0.5
v -1.1 0 0.4
v -1.1 0 -0.4
v -1.1 0 -0.5
v -1.1 0.1 0.5
v -1.1 0.1 0.4
v -1.1 0.1 -0.4
v -1.1 0.1 -0.5
v -1.05 0.1 0.55
v -1.05 0.1 0.5
v -1.05 0.5 0.5
v -1.05 0.5 -0.3
v -1.05 0.75 0.55
v -1.05 0.75 -0.3
v 1.19209e-007 0.4 0.55
v 1.19209e-007 0.4 0.5
v 1.19209e-007 0.5 0.5
v 1.19209e-007 0.5 -0.3
v 1.19209e-007 0.55 0.55
v 1.19209e-007 0.55 -0.25
v 1.19209e-007 1.05 -0.3
v 1.19209e-007 1.05 -0.45
v 1.19209e-007 1.15 -0.25
v 1.19209e-007 1.15 -0.45
v 1 0.1 0.55
v 1 0.1 0.5
v 1 0.35 0.55
v 1 0.35 0.5
v 1 0.4 0.55
v 1 0.4 0.5
v 1 0.5 0.5
v 1 0.5 -0.3
v 1 0.55 0.55
v 1 0.55 -0.25
v 1 1.05 -0.3
v 1 1.05 -0.45
v 1 1.15 -0.25
v 1 1.15 -0.45
v 1.25 0 0.5
v 1.25 0 0.4
v 1.25 0 -0.4
v 1.25 0 -0.5
v 1.25 0.1 0.55
v 1.25 0.1 0.5
v 1.25 0.1 0.4
v 1.25 0.1 -0.4
v 1.25 0.1 -0.5
v 1.25 0.1 -0.55
v 1.25 0.75 0.55
v 1.25 0.75 -0.3
v 1.25 1.05 -0.3
v 1.25 1.05 -0.55
v -1.25 0.1 0.55
v -1.25 0.75 0.55
v -1.05 0.1 0.55
v -1.05 0.75 0.55
v -1 0.1 0.55
v -1 0.35 0.55
v -1 0.4 0.55
v -1 0.55 0.55
v 1.19209e-007 0.4 0.55
v 1.19209e-007 0.55 0.55
v 0.0500001 0.4 0.55
v 0.0500001 0.55 0.55
v 1 0.1 0.55
v 1 0.35 0.55
v 1 0.4 0.55
v 1 0.55 0.55
v 1.05 0.1 0.55
v 1.05 0.75 0.55
v 1.25 0.1 0.55
v 1.25 0.75 0.55
v -1.2 0 0.5
v -1.2 0.1 0.5
v -1.1 0 0.5
v -1.1 0.1 0.5
v -1.05 0.1 0.5
v -1.05 0.5 0.5
v -1 0.1 0.5
v -1 0.35 0.5
v -1 0.4 0.5
v -1 0.5 0.5
v 1.19209e-007 0.4 0.5
v 1.19209e-007 0.5 0.5
v 0.0500001 0.4 0.5
v 0.0500001 0.5 0.5
v 1 0.1 0.5
v 1 0.35 0.5
v 1 0.4 0.5
v 1 0.5 0.5
v 1.05 0.1 0.5
v 1.05 0.5 0.5
v 1.15 0 0.5
v 1.15 0.1 0.5
v 1.25 0 0.5
v 1.25 0.1 0.5
v -1 0.55 -0.25
v -1 1.15 -0.25
v 1.19209e-007 0.55 -0.25
v 1.19209e-007 1.15 -0.25
v 0.0500001 0.55 -0.25
v 0.0500001 1.15 -0.25
v 1 0.55 -0.25
v 1 1.15 -0.25
v -1.25 0.75 -0.3
v -1.25 1.05 -0.3
v -1.05 0.5 -0.3
v -1.05 0.75 -0.3
v -1 0.5 -0.3
v -1 1.05 -0.3
v 1.19209e-007 0.5 -0.3
v 1.19209e-007 1.05 -0.3
v 0.0500001 0.5 -0.3
v 0.0500001 1.05 -0.3
v 1 0.5 -0.3
v 1 1.05 -0.3
v 1.05 0.5 -0.3
v 1.05 0.75 -0.3
v 1.25 0.75 -0.3
v 1.25 1.05 -0.3
v -1.2 0 -0.4
v -1.2 0.1 -0.4
v -1.1 0 -0.4
v -1.1 0.1 -0.4
v 1.15 0 -0.4
v 1.15 0.1 -0.4
v 1.25 0 -0.4
v 1.25 0.1 -0.4
v -1.2 0 0.4
v -1.2 0.1 0.4
v -1.1 0 0.4
v -1.1 0.1 0.4
v 1.15 0 0.4
v 1.15 0.1 0.4
v 1.25 0 0.4
v 1.25 0.1 0.4
v -1 1.05 -0.45
v -1 1.15 -0.45
v 1.19209e-007 1.05 -0.45
v 1.19209e-007 1.15 -0.45
v 0.0500001 1.05 -0.45
v 0.0500001 1.15 -0.45
v 1 1.05 -0.45
v 1 1.15 -0.45
v -1.2 0 -0.5
v -1.2 0.1 -0.5
v -1.1 0 -0.5
v -1.1 0.1 -0.5
v 1.15 0 -0.5
v 1.15 0.1 -0.5
v 1.25 0 -0.5
v 1.25 0.1 -0.5
v -1.25 0.1 -0.55
v -1.25 1.05 -0.55
v 1.25 0.1 -0.55
v 1.25 1.05 -0.55
v -1.2 0 0.5
v -1.1 0 0.5
v 1.15 0 0.5
v 1.25 0 0.5
v -1.2 0 0.4
v -1.1 0 0.4
v 1.15 0 0.4
v 1.25 0 0.4
v -1.2 0 -0.4
v -1.1 0 -0.4
v 1.15 0 -0.4
v 1.25 0 -0.4
v -1.2 0 -0.5
v -1.1 0 -0.5
v 1.15 0 -0.5
v 1.25 0 -0.5
v -1.25 0.1 0.55
v -1.05 0.1 0.55
v -1 0.1 0.55
v 1 0.1 0.55
v 1.05 0.1 0.55
v 1.25 0.1 0.55
v -1.2 0.1 0.5
v -1.1 0.1 0.5
v -1.05 0.1 0.5
v -1 0.1 0.5
v 1 0.1 0.5
v 1.05 0.1 0.5
v 1.15 0.1 0.5
v 1.25 0.1 0.5
v -1.2 0.1 0.4
v -1.1 0.1 0.4
v 1.15 0.1 0.4
v 1.25 0.1 0.4
v -1.2 0.1 -0.4
v -1.1 0.1 -0.4
v 1.15 0.1 -0.4
v 1.25 0.1 -0.4
v -1.2 0.1 -0.5
v -1.1 0.1 -0.5
v 1.15 0.1 -0.5
v 1.25 0.1 -0.5
v -1.25 0.1 -0.55
v 1.25 0.1 -0.55
v -1 0.4 0.55
v 1.19209e-007 0.4 0.55
v 0.0500001 0.4 0.55
v 1 0.4 0.55
v -1 0.4 0.5
v 1.19209e-007 0.4 0.5
v 0.0500001 0.4 0.5
v 1 0.4 0.5
v -1 0.35 0.55
v 1 0.35 0.55
v -1 0.35 0.5
v 1 0.35 0.5
v -1.05 0.5 0.5
v -1 0.5 0.5
v 1.19209e-007 0.5 0.5
v 0.0500001 0.5 0.5
v 1 0.5 0.5
v 1.05 0.5 0.5
v -1.05 0.5 -0.3
v -1 0.5 -0.3
v 1.19209e-007 0.5 -0.3
v 0.0500001 0.5 -0.3
v 1 0.5 -0.3
v 1.05 0.5 -0.3
v -1 0.55 0.55
v 1.19209e-007 0.55 0.55
v 0.0500001 0.55 0.55
v 1 0.55 0.55
v -1 0.55 -0.25
v 1.19209e-007 0.55 -0.25
v 0.0500001 0.55 -0.25
v 1 0.55 -0.25
v -1.25 0.75 0.55
v -1.05 0.75 0.55
v 1.05 0.75 0.55
v 1.25 0.75 0.55
v -1.25 0.75 -0.3
v -1.05 0.75 -0.3
v 1.05 0.75 -0.3
v 1.25 0.75 -0.3
v -1.25 1.05 -0.3
v -1 1.05 -0.3
v 1.19209e-007 1.05 -0.3
v 0.0500001 1.05 -0.3
v 1 1.05 -0.3
v 1.25 1.05 -0.3
v -1 1.05 -0.45
v 1.19209e-007 1.05 -0.45
v 0.0500001 1.05 -0.45
v 1 1.05 -0.45
v -1.25 1.05 -0.55
v 1.25 1.05 -0.55
v -1 1.15 -0.25
v 1.19209e-007 1.15 -0.25
v 0.0500001 1.15 -0.25
v 1 1.15 -0.25
v -1 1.15 -0.45
v 1.19209e-007 1.15 -0.45
v 0.0500001 1.15 -0.45
v 1 1.15 -0.45

# faces
f 3/1/1 2/1/1 1/1/1
f 4/1/1 2/1/1 3/1/1
f 5/1/1 2/1/1 4/1/1
f 6/1/1 2/1/1 5/1/1
f 11/3/1 8/3/1 7/3/1
f 12/3/1 8/3/1 11/3/1
f 13/3/1 10/3/1 9/3/1
f 14/3/1 10/3/1 13/3/1
f 17/1/1 16/1/1 15/1/1
f 18/1/1 16/1/1 17/1/1
f 21/2/1 20/2/1 19/2/1
f 23/2/1 21/2/1 19/2/1
f 23/2/1 22/2/1 21/2/1
f 24/2/1 22/2/1 23/2/1
f 25/2/1 22/2/1 24/2/1
f 27/2/1 25/2/1 24/2/1
f 27/2/1 26/2/1 25/2/1
f 28/2/1 26/2/1 27/2/1
f 31/2/1 30/2/1 29/2/1
f 33/2/1 31/2/1 29/2/1
f 33/2/1 32/2/1 31/2/1
f 34/2/1 32/2/1 33/2/1
f 35/2/1 32/2/1 34/2/1
f 37/2/1 35/2/1 34/2/1
f 37/2/1 36/2/1 35/2/1
f 38/2/1 36/2/1 37/2/1
f 41/1/1 40/1/1 39/1/1
f 43/1/1 41/1/1 39/1/1
f 43/1/1 42/1/1 41/1/1
f 44/1/1 42/1/1 43/1/1
f 49/3/1 46/3/1 45/3/1
f 50/3/1 46/3/1 49/3/1
f 51/3/1 48/3/1 47/3/1
f 52/3/1 48/3/1 51/3/1
f 53/3/2 54/3/2 57/3/2
f 57/3/2 54/3/2 58/3/2
f 55/3/2 56/3/2 59/3/2
f 59/3/2 56/3/2 60/3/2
f 61/1/2 62/1/2 63/1/2
f 61/1/2 63/1/2 65/1/2
f 63/1/2 64/1/2 65/1/2
f 65/1/2 64/1/2 66/1/2
f 67/2/2 68/2/2 69/2/2
f 67/2/2 69/2/2 71/2/2
f 69/2/2 70/2/2 71/2/2
f 71/2/2 70/2/2 72/2/2
f 72/2/2 70/2/2 73/2/2
f 72/2/2 73/2/2 75/2/2
f 73/2/2 74/2/2 75/2/2
f 75/2/2 74/2/2 76/2/2
f 77/1/2 78/1/2 79/1/2
f 79/1/2 78/1/2 80/1/2
f 81/2/2 82/2/2 83/2/2
f 81/2/2 83/2/2 85/2/2
f 83/2/2 84/2/2 85/2/2
f 85/2/2 84/2/2 86/2/2
f 86/2/2 84/2/2 87/2/2
f 86/2/2 87/2/2 89/2/2
f 87/2/2 88/2/2 89/2/2
f 89/2/2 88/2/2 90/2/2
f 91/3/2 92/3/2 96/3/2
f 96/3/2 92/3/2 97/3/2
f 93/3/2 94/3/2 98/3/2
f 98/3/2 94/3/2 99/3/2
f 96/1/2 97/1/2 101/1/2
f 99/1/2 100/1/2 101/1/2
f 98/1/2 99/1/2 101/1/2
f 97/1/2 98/1/2 101/1/2
f 95/1/2 96/1/2 101/1/2
f 101/1/2 100/1/2 102/1/2
f 102/1/2 100/1/2 103/1/2
f 103/1/2 100/1/2 104/1/2
f 107/1/3 106/1/3 105/1/3
f 108/1/3 106/1/3 107/1/3
f 113/2/3 112/2/3 111/2/3
f 114/2/3 112/2/3 113/2/3
f 117/1/3 110/1/3 109/1/3
f 118/1/3 110/1/3 117/1/3
f 119/2/3 116/2/3 115/2/3
f 120/2/3 116/2/3 119/2/3
f 123/1/3 122/1/3 121/1/3
f 124/1/3 122/1/3 123/1/3
f 127/3/3 126/3/3 125/3/3
f 128/3/3 126/3/3 127/3/3
f 131/1/3 130/1/3 129/1/3
f 132/1/3 130/1/3 131/1/3
f 133/1/3 130/1/3 132/1/3
f 134/1/3 130/1/3 133/1/3
f 135/1/3 133/1/3 132/1/3
f 137/1/3 135/1/3 132/1/3
f 137/1/3 136/1/3 135/1/3
f 138/1/3 136/1/3 137/1/3
f 140/1/3 137/1/3 132/1/3
f 141/1/3 137/1/3 140/1/3
f 143/1/3 140/1/3 139/1/3
f 143/1/3 142/1/3 141/1/3
f 143/1/3 141/1/3 140/1/3
f 144/1/3 142/1/3 143/1/3
f 147/3/3 146/3/3 145/3/3
f 148/3/3 146/3/3 147/3/3
f 151/2/3 150/2/3 149/2/3
f 152/2/3 150/2/3 151/2/3
f 155/2/3 154/2/3 153/2/3
f 156/2/3 154/2/3 155/2/3
f 160/1/3 158/1/3 157/1/3
f 161/1/3 160/1/3 159/1/3
f 162/1/3 158/1/3 160/1/3
f 162/1/3 160/1/3 161/1/3
f 165/1/3 164/1/3 163/1/3
f 166/1/3 164/1/3 165/1/3
f 169/1/3 168/1/3 167/1/3
f 170/1/3 168/1/3 169/1/3
f 171/1/3 168/1/3 170/1/3
f 172/1/3 168/1/3 171/1/3
f 175/3/3 174/3/3 173/3/3
f 176/3/3 174/3/3 175/3/3
f 179/3/3 178/3/3 177/3/3
f 180/3/3 178/3/3 179/3/3
f 181/3/4 182/3/4 183/3/4
f 183/3/4 182/3/4 184/3/4
f 185/3/4 186/3/4 187/3/4
f 187/3/4 186/3/4 188/3/4
f 189/2/4 190/2/4 191/2/4
f 191/2/4 190/2/4 192/2/4
f 193/2/4 194/2/4 195/2/4
f 195/2/4 194/2/4 196/2/4
f 197/3/4 198/3/4 199/3/4
f 199/3/4 198/3/4 200/3/4
f 201/3/4 202/3/4 203/3/4
f 203/3/4 202/3/4 204/3/4
f 205/1/4 206/1/4 207/1/4
f 207/1/4 206/1/4 208/1/4
f 213/3/5 210/3/5 209/3/5
f 214/3/5 210/3/5 213/3/5
f 215/3/5 212/3/5 211/3/5
f 216/3/5 212/3/5 215/3/5
f 221/3/5 218/3/5 217/3/5
f 222/3/5 218/3/5 221/3/5
f 223/3/5 220/3/5 219/3/5
f 224/3/5 220/3/5 223/3/5
f 231/1/5 226/1/5 225/1/5
f 232/1/5 226/1/5 231/1/5
f 233/1/5 226/1/5 232/1/5
f 234/1/5 228/1/5 227/1/5
f 235/1/5 228/1/5 234/1/5
f 236/1/5 230/1/5 229/1/5
f 237/1/5 230/1/5 236/1/5
f 238/1/5 230/1/5 237/1/5
f 239/1/5 231/1/5 225/1/5
f 240/1/5 235/1/5 234/1/5
f 240/1/5 233/1/5 232/1/5
f 240/1/5 236/1/5 235/1/5
f 240/1/5 237/1/5 236/1/5
f 240/1/5 234/1/5 233/1/5
f 241/1/5 237/1/5 240/1/5
f 243/1/5 239/1/5 225/1/5
f 243/1/5 242/1/5 241/1/5
f 243/1/5 241/1/5 240/1/5
f 243/1/5 240/1/5 239/1/5
f 244/1/5 242/1/5 243/1/5
f 245/1/5 242/1/5 244/1/5
f 246/1/5 242/1/5 245/1/5
f 247/1/5 243/1/5 225/1/5
f 248/1/5 245/1/5 244/1/5
f 249/1/5 245/1/5 248/1/5
f 251/1/5 247/1/5 225/1/5
f 251/1/5 250/1/5 249/1/5
f 251/1/5 249/1/5 248/1/5
f 251/1/5 248/1/5 247/1/5
f 252/1/5 250/1/5 251/1/5
f 257/2/5 254/2/5 253/2/5
f 258/2/5 254/2/5 257/2/5
f 259/2/5 256/2/5 255/2/5
f 260/2/5 256/2/5 259/2/5
f 261/1/6 262/1/6 263/1/6
f 263/1/6 262/1/6 264/1/6
f 265/1/6 266/1/6 271/1/6
f 271/1/6 266/1/6 272/1/6
f 267/1/6 268/1/6 273/1/6
f 273/1/6 268/1/6 274/1/6
f 269/1/6 270/1/6 275/1/6
f 275/1/6 270/1/6 276/1/6
f 277/2/6 278/2/6 281/2/6
f 281/2/6 278/2/6 282/2/6
f 279/2/6 280/2/6 283/2/6
f 283/2/6 280/2/6 284/2/6
f 285/1/6 286/1/6 289/1/6
f 289/1/6 286/1/6 290/1/6
f 287/1/6 288/1/6 291/1/6
f 291/1/6 288/1/6 292/1/6
f 293/1/6 294/1/6 299/1/6
f 295/1/6 296/1/6 300/1/6
f 300/1/6 296/1/6 301/1/6
f 297/1/6 298/1/6 302/1/6
f 300/1/6 301/1/6 303/1/6
f 301/1/6 302/1/6 303/1/6
f 293/1/6 299/1/6 303/1/6
f 299/1/6 300/1/6 303/1/6
f 302/1/6 298/1/6 304/1/6
f 303/1/6 302/1/6 304/1/6
f 305/2/6 306/2/6 309/2/6
f 309/2/6 306/2/6 310/2/6
f 307/2/6 308/2/6 311/2/6
f 311/2/6 308/2/6 312/2/6
