# MagicaVoxel @ Ephtracy

# group
o tv-stand

# material
mtllib obj-10-tv-stand.mtl
usemtl palette

# normals
vn 1 0 0
vn -1 0 0
vn 0 0 -1
vn 0 0 1
vn 0 -1 0
vn 0 1 0

# texcoords
vt 0.669922 0.5
vt 0.673828 0.5

# verts
v 0.75 0.7 -0.4
v 0.75 0.7 0.35
v 0.75 0.8 -0.4
v 0.75 0.8 0.35
v 0.65 0.4 -0.35
v 0.65 0.4 0.35
v 0.65 0.45 -0.35
v 0.65 0.45 0.35
v 0.6 0.3 -0.3
v 0.6 0.3 -0.25
v 0.6 0.3 0.2
v 0.6 0.3 0.25
v 0.6 0.4 -0.3
v 0.6 0.4 -0.25
v 0.6 0.4 0.2
v 0.6 0.4 0.25
v 0.6 0.45 -0.3
v 0.6 0.45 -0.25
v 0.6 0.45 0.2
v 0.6 0.45 0.25
v 0.6 0.7 -0.3
v 0.6 0.7 -0.25
v 0.6 0.7 0.2
v 0.6 0.7 0.25
v -0.55 0.3 -0.3
v -0.55 0.3 -0.25
v -0.55 0.3 0.2
v -0.55 0.3 0.25
v -0.55 0.4 -0.3
v -0.55 0.4 -0.25
v -0.55 0.4 0.2
v -0.55 0.4 0.25
v -0.55 0.45 -0.3
v -0.55 0.45 -0.25
v -0.55 0.45 0.2
v -0.55 0.45 0.25
v -0.55 0.7 -0.3
v -0.55 0.7 -0.25
v -0.55 0.7 0.2
v -0.55 0.7 0.25
v 0.55 0.3 -0.3
v 0.55 0.3 -0.25
v 0.55 0.3 0.2
v 0.55 0.3 0.25
v 0.55 0.4 -0.3
v 0.55 0.4 -0.25
v 0.55 0.4 0.2
v 0.55 0.4 0.25
v 0.55 0.45 -0.3
v 0.55 0.45 -0.25
v 0.55 0.45 0.2
v 0.55 0.45 0.25
v 0.55 0.7 -0.3
v 0.55 0.7 -0.25
v 0.55 0.7 0.2
v 0.55 0.7 0.25
v -0.6 0.3 -0.3
v -0.6 0.3 -0.25
v -0.6 0.3 0.2
v -0.6 0.3 0.25
v -0.6 0.4 -0.3
v -0.6 0.4 -0.25
v -0.6 0.4 0.2
v -0.6 0.4 0.25
v -0.6 0.45 -0.3
v -0.6 0.45 -0.25
v -0.6 0.45 0.2
v -0.6 0.45 0.25
v -0.6 0.7 -0.3
v -0.6 0.7 -0.25
v -0.6 0.7 0.2
v -0.6 0.7 0.25
v -0.65 0.4 -0.35
v -0.65 0.4 0.35
v -0.65 0.45 -0.35
v -0.65 0.45 0.35
v -0.75 0.7 -0.4
v -0.75 0.7 0.35
v -0.75 0.8 -0.4
v -0.75 0.8 0.35
v 0.75 0.7 -0.4
v 0.75 0.8 -0.4
v -0.75 0.7 -0.4
v -0.75 0.8 -0.4
v 0.65 0.4 -0.35
v 0.65 0.45 -0.35
v -0.65 0.4 -0.35
v -0.65 0.45 -0.35
v 0.6 0.3 -0.3
v 0.6 0.4 -0.3
v 0.6 0.45 -0.3
v 0.6 0.7 -0.3
v 0.55 0.3 -0.3
v 0.55 0.4 -0.3
v 0.55 0.45 -0.3
v 0.55 0.7 -0.3
v -0.55 0.3 -0.3
v -0.55 0.4 -0.3
v -0.55 0.45 -0.3
v -0.55 0.7 -0.3
v -0.6 0.3 -0.3
v -0.6 0.4 -0.3
v -0.6 0.45 -0.3
v -0.6 0.7 -0.3
v 0.6 0.3 0.2
v 0.6 0.4 0.2
v 0.6 0.45 0.2
v 0.6 0.7 0.2
v 0.55 0.3 0.2
v 0.55 0.4 0.2
v 0.55 0.45 0.2
v 0.55 0.7 0.2
v -0.55 0.3 0.2
v -0.55 0.4 0.2
v -0.55 0.45 0.2
v -0.55 0.7 0.2
v -0.6 0.3 0.2
v -0.6 0.4 0.2
v -0.6 0.45 0.2
v -0.6 0.7 0.2
v 0.6 0.3 -0.25
v 0.6 0.4 -0.25
v 0.6 0.45 -0.25
v 0.6 0.7 -0.25
v 0.55 0.3 -0.25
v 0.55 0.4 -0.25
v 0.55 0.45 -0.25
v 0.55 0.7 -0.25
v -0.55 0.3 -0.25
v -0.55 0.4 -0.25
v -0.55 0.45 -0.25
v -0.55 0.7 -0.25
v -0.6 0.3 -0.25
v -0.6 0.4 -0.25
v -0.6 0.45 -0.25
v -0.6 0.7 -0.25
v 0.6 0.3 0.25
v 0.6 0.4 0.25
v 0.6 0.45 0.25
v 0.6 0.7 0.25
v 0.55 0.3 0.25
v 0.55 0.4 0.25
v 0.55 0.45 0.25
v 0.55 0.7 0.25
v -0.55 0.3 0.25
v -0.55 0.4 0.25
v -0.55 0.45 0.25
v -0.55 0.7 0.25
v -0.6 0.3 0.25
v -0.6 0.4 0.25
v -0.6 0.45 0.25
v -0.6 0.7 0.25
v 0.75 0.7 0.35
v 0.75 0.8 0.35
v 0.65 0.4 0.35
v 0.65 0.45 0.35
v -0.65 0.4 0.35
v -0.65 0.45 0.35
v -0.75 0.7 0.35
v -0.75 0.8 0.35
v 0.6 0.3 -0.3
v 0.55 0.3 -0.3
v -0.55 0.3 -0.3
v -0.6 0.3 -0.3
v 0.6 0.3 -0.25
v 0.55 0.3 -0.25
v -0.55 0.3 -0.25
v -0.6 0.3 -0.25
v 0.6 0.3 0.2
v 0.55 0.3 0.2
v -0.55 0.3 0.2
v -0.6 0.3 0.2
v 0.6 0.3 0.25
v 0.55 0.3 0.25
v -0.55 0.3 0.25
v -0.6 0.3 0.25
v 0.65 0.4 -0.35
v -0.65 0.4 -0.35
v 0.6 0.4 -0.3
v 0.55 0.4 -0.3
v -0.55 0.4 -0.3
v -0.6 0.4 -0.3
v 0.6 0.4 -0.25
v 0.55 0.4 -0.25
v -0.55 0.4 -0.25
v -0.6 0.4 -0.25
v 0.6 0.4 0.2
v 0.55 0.4 0.2
v -0.55 0.4 0.2
v -0.6 0.4 0.2
v 0.6 0.4 0.25
v 0.55 0.4 0.25
v -0.55 0.4 0.25
v -0.6 0.4 0.25
v 0.65 0.4 0.35
v -0.65 0.4 0.35
v 0.75 0.7 -0.4
v -0.75 0.7 -0.4
v 0.6 0.7 -0.3
v 0.55 0.7 -0.3
v -0.55 0.7 -0.3
v -0.6 0.7 -0.3
v 0.6 0.7 -0.25
v 0.55 0.7 -0.25
v -0.55 0.7 -0.25
v -0.6 0.7 -0.25
v 0.6 0.7 0.2
v 0.55 0.7 0.2
v -0.55 0.7 0.2
v -0.6 0.7 0.2
v 0.6 0.7 0.25
v 0.55 0.7 0.25
v -0.55 0.7 0.25
v -0.6 0.7 0.25
v 0.75 0.7 0.35
v -0.75 0.7 0.35
v 0.65 0.45 -0.35
v -0.65 0.45 -0.35
v 0.6 0.45 -0.3
v 0.55 0.45 -0.3
v -0.55 0.45 -0.3
v -0.6 0.45 -0.3
v 0.6 0.45 -0.25
v 0.55 0.45 -0.25
v -0.55 0.45 -0.25
v -0.6 0.45 -0.25
v 0.6 0.45 0.2
v 0.55 0.45 0.2
v -0.55 0.45 0.2
v -0.6 0.45 0.2
v 0.6 0.45 0.25
v 0.55 0.45 0.25
v -0.55 0.45 0.25
v -0.6 0.45 0.25
v 0.65 0.45 0.35
v -0.65 0.45 0.35
v 0.75 0.8 -0.4
v -0.75 0.8 -0.4
v 0.75 0.8 0.35
v -0.75 0.8 0.35

# faces
f 3/1/1 2/1/1 1/1/1
f 4/1/1 2/1/1 3/1/1
f 7/1/1 6/1/1 5/1/1
f 8/1/1 6/1/1 7/1/1
f 13/2/1 10/2/1 9/2/1
f 14/2/1 10/2/1 13/2/1
f 15/2/1 12/2/1 11/2/1
f 16/2/1 12/2/1 15/2/1
f 21/2/1 18/2/1 17/2/1
f 22/2/1 18/2/1 21/2/1
f 23/2/1 20/2/1 19/2/1
f 24/2/1 20/2/1 23/2/1
f 29/2/1 26/2/1 25/2/1
f 30/2/1 26/2/1 29/2/1
f 31/2/1 28/2/1 27/2/1
f 32/2/1 28/2/1 31/2/1
f 37/2/1 34/2/1 33/2/1
f 38/2/1 34/2/1 37/2/1
f 39/2/1 36/2/1 35/2/1
f 40/2/1 36/2/1 39/2/1
f 41/2/2 42/2/2 45/2/2
f 45/2/2 42/2/2 46/2/2
f 43/2/2 44/2/2 47/2/2
f 47/2/2 44/2/2 48/2/2
f 49/2/2 50/2/2 53/2/2
f 53/2/2 50/2/2 54/2/2
f 51/2/2 52/2/2 55/2/2
f 55/2/2 52/2/2 56/2/2
f 57/2/2 58/2/2 61/2/2
f 61/2/2 58/2/2 62/2/2
f 59/2/2 60/2/2 63/2/2
f 63/2/2 60/2/2 64/2/2
f 65/2/2 66/2/2 69/2/2
f 69/2/2 66/2/2 70/2/2
f 67/2/2 68/2/2 71/2/2
f 71/2/2 68/2/2 72/2/2
f 73/1/2 74/1/2 75/1/2
f 75/1/2 74/1/2 76/1/2
f 77/1/2 78/1/2 79/1/2
f 79/1/2 78/1/2 80/1/2
f 83/1/3 82/1/3 81/1/3
f 84/1/3 82/1/3 83/1/3
f 87/1/3 86/1/3 85/1/3
f 88/1/3 86/1/3 87/1/3
f 93/2/3 90/2/3 89/2/3
f 94/2/3 90/2/3 93/2/3
f 95/2/3 92/2/3 91/2/3
f 96/2/3 92/2/3 95/2/3
f 101/2/3 98/2/3 97/2/3
f 102/2/3 98/2/3 101/2/3
f 103/2/3 100/2/3 99/2/3
f 104/2/3 100/2/3 103/2/3
f 109/2/3 106/2/3 105/2/3
f 110/2/3 106/2/3 109/2/3
f 111/2/3 108/2/3 107/2/3
f 112/2/3 108/2/3 111/2/3
f 117/2/3 114/2/3 113/2/3
f 118/2/3 114/2/3 117/2/3
f 119/2/3 116/2/3 115/2/3
f 120/2/3 116/2/3 119/2/3
f 121/2/4 122/2/4 125/2/4
f 125/2/4 122/2/4 126/2/4
f 123/2/4 124/2/4 127/2/4
f 127/2/4 124/2/4 128/2/4
f 129/2/4 130/2/4 133/2/4
f 133/2/4 130/2/4 134/2/4
f 131/2/4 132/2/4 135/2/4
f 135/2/4 132/2/4 136/2/4
f 137/2/4 138/2/4 141/2/4
f 141/2/4 138/2/4 142/2/4
f 139/2/4 140/2/4 143/2/4
f 143/2/4 140/2/4 144/2/4
f 145/2/4 146/2/4 149/2/4
f 149/2/4 146/2/4 150/2/4
f 147/2/4 148/2/4 151/2/4
f 151/2/4 148/2/4 152/2/4
f 155/1/4 156/1/4 157/1/4
f 157/1/4 156/1/4 158/1/4
f 153/1/4 154/1/4 159/1/4
f 159/1/4 154/1/4 160/1/4
f 165/2/5 162/2/5 161/2/5
f 166/2/5 162/2/5 165/2/5
f 167/2/5 164/2/5 163/2/5
f 168/2/5 164/2/5 167/2/5
f 173/2/5 170/2/5 169/2/5
f 174/2/5 170/2/5 173/2/5
f 175/2/5 172/2/5 171/2/5
f 176/2/5 172/2/5 175/2/5
f 179/1/5 178/1/5 177/1/5
f 180/1/5 178/1/5 179/1/5
f 181/1/5 178/1/5 180/1/5
f 182/1/5 178/1/5 181/1/5
f 183/1/5 179/1/5 177/1/5
f 184/1/5 181/1/5 180/1/5
f 185/1/5 181/1/5 184/1/5
f 186/1/5 178/1/5 182/1/5
f 187/1/5 185/1/5 184/1/5
f 187/1/5 186/1/5 185/1/5
f 187/1/5 183/1/5 177/1/5
f 187/1/5 184/1/5 183/1/5
f 188/1/5 186/1/5 187/1/5
f 189/1/5 186/1/5 188/1/5
f 190/1/5 178/1/5 186/1/5
f 190/1/5 186/1/5 189/1/5
f 191/1/5 187/1/5 177/1/5
f 192/1/5 189/1/5 188/1/5
f 193/1/5 189/1/5 192/1/5
f 194/1/5 178/1/5 190/1/5
f 195/1/5 191/1/5 177/1/5
f 195/1/5 194/1/5 193/1/5
f 195/1/5 193/1/5 192/1/5
f 195/1/5 192/1/5 191/1/5
f 196/1/5 178/1/5 194/1/5
f 196/1/5 194/1/5 195/1/5
f 199/1/5 198/1/5 197/1/5
f 200/1/5 198/1/5 199/1/5
f 201/1/5 198/1/5 200/1/5
f 202/1/5 198/1/5 201/1/5
f 203/1/5 199/1/5 197/1/5
f 204/1/5 201/1/5 200/1/5
f 205/1/5 201/1/5 204/1/5
f 206/1/5 198/1/5 202/1/5
f 207/1/5 205/1/5 204/1/5
f 207/1/5 206/1/5 205/1/5
f 207/1/5 203/1/5 197/1/5
f 207/1/5 204/1/5 203/1/5
f 208/1/5 206/1/5 207/1/5
f 209/1/5 206/1/5 208/1/5
f 210/1/5 198/1/5 206/1/5
f 210/1/5 206/1/5 209/1/5
f 211/1/5 207/1/5 197/1/5
f 212/1/5 209/1/5 208/1/5
f 213/1/5 209/1/5 212/1/5
f 214/1/5 198/1/5 210/1/5
f 215/1/5 211/1/5 197/1/5
f 215/1/5 214/1/5 213/1/5
f 215/1/5 213/1/5 212/1/5
f 215/1/5 212/1/5 211/1/5
f 216/1/5 198/1/5 214/1/5
f 216/1/5 214/1/5 215/1/5
f 217/1/6 218/1/6 219/1/6
f 219/1/6 218/1/6 220/1/6
f 220/1/6 218/1/6 221/1/6
f 221/1/6 218/1/6 222/1/6
f 217/1/6 219/1/6 223/1/6
f 220/1/6 221/1/6 224/1/6
f 224/1/6 221/1/6 225/1/6
f 222/1/6 218/1/6 226/1/6
f 224/1/6 225/1/6 227/1/6
f 225/1/6 226/1/6 227/1/6
f 217/1/6 223/1/6 227/1/6
f 223/1/6 224/1/6 227/1/6
f 227/1/6 226/1/6 228/1/6
f 228/1/6 226/1/6 229/1/6
f 226/1/6 218/1/6 230/1/6
f 229/1/6 226/1/6 230/1/6
f 217/1/6 227/1/6 231/1/6
f 228/1/6 229/1/6 232/1/6
f 232/1/6 229/1/6 233/1/6
f 230/1/6 218/1/6 234/1/6
f 217/1/6 231/1/6 235/1/6
f 233/1/6 234/1/6 235/1/6
f 232/1/6 233/1/6 235/1/6
f 231/1/6 232/1/6 235/1/6
f 234/1/6 218/1/6 236/1/6
f 235/1/6 234/1/6 236/1/6
f 237/1/6 238/1/6 239/1/6
f 239/1/6 238/1/6 240/1/6
