# MagicaVoxel @ Ephtracy

# group
o cabinet-0

# material
mtllib obj-8-cabinet-0.mtl
usemtl palette

# normals
vn -1 0 0
vn 1 0 0
vn 0 0 1
vn 0 0 -1
vn 0 -1 0
vn 0 1 0

# texcoords
vt 0.955078 0.5
vt 0.982422 0.5
vt 0.986328 0.5

# verts
v -0.6 0.85 0.4
v -0.6 0.85 -0.45
v -0.6 0.9 0.4
v -0.6 0.9 -0.45
v -0.55 0 0.3
v -0.55 0 -0.35
v -0.55 0.1 0.35
v -0.55 0.1 0.3
v -0.55 0.1 -0.35
v -0.55 0.1 -0.4
v -0.55 0.85 0.35
v -0.55 0.85 -0.4
v -0.45 0.2 0.4
v -0.45 0.2 0.35
v -0.45 0.75 0.4
v -0.45 0.75 0.35
v 0.05 0.2 0.4
v 0.05 0.2 0.35
v 0.05 0.75 0.4
v 0.05 0.75 0.35
v -0.05 0.2 0.4
v -0.05 0.2 0.35
v -0.05 0.75 0.4
v -0.05 0.75 0.35
v 0.45 0.2 0.4
v 0.45 0.2 0.35
v 0.45 0.75 0.4
v 0.45 0.75 0.35
v 0.55 0 0.3
v 0.55 0 -0.35
v 0.55 0.1 0.35
v 0.55 0.1 0.3
v 0.55 0.1 -0.35
v 0.55 0.1 -0.4
v 0.55 0.85 0.35
v 0.55 0.85 -0.4
v 0.6 0.85 0.4
v 0.6 0.85 -0.45
v 0.6 0.9 0.4
v 0.6 0.9 -0.45
v -0.6 0.85 0.4
v -0.6 0.9 0.4
v -0.45 0.2 0.4
v -0.45 0.75 0.4
v -0.05 0.2 0.4
v -0.05 0.75 0.4
v 0.05 0.2 0.4
v 0.05 0.75 0.4
v 0.45 0.2 0.4
v 0.45 0.75 0.4
v 0.6 0.85 0.4
v 0.6 0.9 0.4
v -0.55 0.1 0.35
v -0.55 0.85 0.35
v -0.45 0.2 0.35
v -0.45 0.75 0.35
v -0.05 0.2 0.35
v -0.05 0.75 0.35
v 0.05 0.2 0.35
v 0.05 0.75 0.35
v 0.45 0.2 0.35
v 0.45 0.75 0.35
v 0.55 0.1 0.35
v 0.55 0.85 0.35
v -0.55 0 0.3
v -0.55 0.1 0.3
v 0.55 0 0.3
v 0.55 0.1 0.3
v -0.55 0 -0.35
v -0.55 0.1 -0.35
v 0.55 0 -0.35
v 0.55 0.1 -0.35
v -0.55 0.1 -0.4
v -0.55 0.85 -0.4
v 0.55 0.1 -0.4
v 0.55 0.85 -0.4
v -0.6 0.85 -0.45
v -0.6 0.9 -0.45
v 0.6 0.85 -0.45
v 0.6 0.9 -0.45
v -0.55 0 0.3
v 0.55 0 0.3
v -0.55 0 -0.35
v 0.55 0 -0.35
v -0.55 0.1 0.35
v 0.55 0.1 0.35
v -0.55 0.1 0.3
v 0.55 0.1 0.3
v -0.55 0.1 -0.35
v 0.55 0.1 -0.35
v -0.55 0.1 -0.4
v 0.55 0.1 -0.4
v -0.45 0.2 0.4
v -0.05 0.2 0.4
v 0.05 0.2 0.4
v 0.45 0.2 0.4
v -0.45 0.2 0.35
v -0.05 0.2 0.35
v 0.05 0.2 0.35
v 0.45 0.2 0.35
v -0.6 0.85 0.4
v 0.6 0.85 0.4
v -0.55 0.85 0.35
v 0.55 0.85 0.35
v -0.55 0.85 -0.4
v 0.55 0.85 -0.4
v -0.6 0.85 -0.45
v 0.6 0.85 -0.45
v -0.45 0.75 0.4
v -0.05 0.75 0.4
v 0.05 0.75 0.4
v 0.45 0.75 0.4
v -0.45 0.75 0.35
v -0.05 0.75 0.35
v 0.05 0.75 0.35
v 0.45 0.75 0.35
v -0.6 0.9 0.4
v 0.6 0.9 0.4
v -0.6 0.9 -0.45
v 0.6 0.9 -0.45

# faces
f 3/2/1 2/2/1 1/2/1
f 4/2/1 2/2/1 3/2/1
f 8/1/1 6/1/1 5/1/1
f 9/1/1 6/1/1 8/1/1
f 11/3/1 8/3/1 7/3/1
f 11/3/1 10/3/1 9/3/1
f 11/3/1 9/3/1 8/3/1
f 12/3/1 10/3/1 11/3/1
f 15/1/1 14/1/1 13/1/1
f 16/1/1 14/1/1 15/1/1
f 19/1/1 18/1/1 17/1/1
f 20/1/1 18/1/1 19/1/1
f 21/1/2 22/1/2 23/1/2
f 23/1/2 22/1/2 24/1/2
f 25/1/2 26/1/2 27/1/2
f 27/1/2 26/1/2 28/1/2
f 29/1/2 30/1/2 32/1/2
f 32/1/2 30/1/2 33/1/2
f 31/3/2 32/3/2 35/3/2
f 33/3/2 34/3/2 35/3/2
f 32/3/2 33/3/2 35/3/2
f 35/3/2 34/3/2 36/3/2
f 37/2/2 38/2/2 39/2/2
f 39/2/2 38/2/2 40/2/2
f 45/1/3 44/1/3 43/1/3
f 46/1/3 44/1/3 45/1/3
f 49/1/3 48/1/3 47/1/3
f 50/1/3 48/1/3 49/1/3
f 51/2/3 42/2/3 41/2/3
f 52/2/3 42/2/3 51/2/3
f 55/3/3 54/3/3 53/3/3
f 56/3/3 54/3/3 55/3/3
f 57/3/3 55/3/3 53/3/3
f 58/3/3 54/3/3 56/3/3
f 59/3/3 57/3/3 53/3/3
f 59/3/3 58/3/3 57/3/3
f 60/3/3 54/3/3 58/3/3
f 60/3/3 58/3/3 59/3/3
f 61/3/3 59/3/3 53/3/3
f 62/3/3 54/3/3 60/3/3
f 63/3/3 61/3/3 53/3/3
f 63/3/3 62/3/3 61/3/3
f 64/3/3 54/3/3 62/3/3
f 64/3/3 62/3/3 63/3/3
f 67/1/3 66/1/3 65/1/3
f 68/1/3 66/1/3 67/1/3
f 69/1/4 70/1/4 71/1/4
f 71/1/4 70/1/4 72/1/4
f 73/3/4 74/3/4 75/3/4
f 75/3/4 74/3/4 76/3/4
f 77/2/4 78/2/4 79/2/4
f 79/2/4 78/2/4 80/2/4
f 83/1/5 82/1/5 81/1/5
f 84/1/5 82/1/5 83/1/5
f 87/3/5 86/3/5 85/3/5
f 88/3/5 86/3/5 87/3/5
f 91/3/5 90/3/5 89/3/5
f 92/3/5 90/3/5 91/3/5
f 97/1/5 94/1/5 93/1/5
f 98/1/5 94/1/5 97/1/5
f 99/1/5 96/1/5 95/1/5
f 100/1/5 96/1/5 99/1/5
f 103/2/5 102/2/5 101/2/5
f 104/2/5 102/2/5 103/2/5
f 105/2/5 103/2/5 101/2/5
f 106/2/5 102/2/5 104/2/5
f 107/2/5 105/2/5 101/2/5
f 107/2/5 106/2/5 105/2/5
f 108/2/5 102/2/5 106/2/5
f 108/2/5 106/2/5 107/2/5
f 109/1/6 110/1/6 113/1/6
f 113/1/6 110/1/6 114/1/6
f 111/1/6 112/1/6 115/1/6
f 115/1/6 112/1/6 116/1/6
f 117/2/6 118/2/6 119/2/6
f 119/2/6 118/2/6 120/2/6
