# MagicaVoxel @ Ephtracy

# group
o dining-chair

# material
mtllib obj-11-dining-chair.mtl
usemtl palette

# normals
vn -1 0 0
vn 1 0 0
vn 0 0 1
vn 0 0 -1
vn 0 -1 0
vn 0 1 0

# texcoords
vt 0.650391 0.5
vt 0.759766 0.5

# verts
v -0.25 0.5 0.25
v -0.25 0.5 -0.2
v -0.25 0.6 0.25
v -0.25 0.6 -0.2
v -0.25 0.8 -0.15
v -0.25 0.8 -0.2
v -0.25 1.15 -0.15
v -0.25 1.15 -0.2
v -0.2 0.05 0.2
v -0.2 0.05 0.15
v -0.2 0.05 -0.15
v -0.2 0.05 -0.2
v -0.2 0.5 0.2
v -0.2 0.5 0.15
v -0.2 0.5 -0.15
v -0.2 0.5 -0.2
v -0.2 0.55 -0.2
v -0.2 0.55 -0.25
v -0.2 0.6 0.25
v -0.2 0.6 -0.15
v -0.2 0.6 -0.2
v -0.2 0.65 0.25
v -0.2 0.65 -0.15
v -0.2 0.8 -0.2
v -0.2 1.1 -0.2
v -0.2 1.1 -0.25
v 0.15 0.05 0.2
v 0.15 0.05 0.15
v 0.15 0.05 -0.15
v 0.15 0.05 -0.2
v 0.15 0.5 0.2
v 0.15 0.5 0.15
v 0.15 0.5 -0.15
v 0.15 0.55 -0.15
v 0.15 0.55 -0.2
v 0.15 0.6 -0.2
v 0.15 0.6 -0.25
v 0.15 0.8 -0.2
v 0.15 0.85 -0.2
v 0.15 0.85 -0.25
v 0.15 0.9 -0.2
v 0.15 0.9 -0.25
v 0.15 1.05 -0.2
v 0.15 1.05 -0.25
v 0.2 0.5 0.2
v 0.2 0.5 0.15
v 0.2 0.6 0.2
v 0.2 0.6 0.15
v -0.2 0.5 0.2
v -0.2 0.5 0.15
v -0.2 0.6 0.2
v -0.2 0.6 0.15
v -0.15 0.05 0.2
v -0.15 0.05 0.15
v -0.15 0.05 -0.15
v -0.15 0.05 -0.2
v -0.15 0.5 0.2
v -0.15 0.5 0.15
v -0.15 0.5 -0.15
v -0.15 0.55 -0.15
v -0.15 0.55 -0.2
v -0.15 0.6 -0.2
v -0.15 0.6 -0.25
v -0.15 0.8 -0.2
v -0.15 0.85 -0.2
v -0.15 0.85 -0.25
v -0.15 0.9 -0.2
v -0.15 0.9 -0.25
v -0.15 1.05 -0.2
v -0.15 1.05 -0.25
v 0.2 0.05 0.2
v 0.2 0.05 0.15
v 0.2 0.05 -0.15
v 0.2 0.05 -0.2
v 0.2 0.5 0.2
v 0.2 0.5 0.15
v 0.2 0.5 -0.15
v 0.2 0.5 -0.2
v 0.2 0.55 -0.2
v 0.2 0.55 -0.25
v 0.2 0.6 0.25
v 0.2 0.6 -0.15
v 0.2 0.6 -0.2
v 0.2 0.65 0.25
v 0.2 0.65 -0.15
v 0.2 0.8 -0.2
v 0.2 1.1 -0.2
v 0.2 1.1 -0.25
v 0.25 0.5 0.25
v 0.25 0.5 -0.2
v 0.25 0.6 0.25
v 0.25 0.6 -0.2
v 0.25 0.8 -0.15
v 0.25 0.8 -0.2
v 0.25 1.15 -0.15
v 0.25 1.15 -0.2
v -0.25 0.5 0.25
v -0.25 0.6 0.25
v -0.2 0.6 0.25
v -0.2 0.65 0.25
v 0.2 0.6 0.25
v 0.2 0.65 0.25
v 0.25 0.5 0.25
v 0.25 0.6 0.25
v -0.2 0.05 0.2
v -0.2 0.5 0.2
v -0.15 0.05 0.2
v -0.15 0.5 0.2
v 0.15 0.05 0.2
v 0.15 0.5 0.2
v 0.2 0.05 0.2
v 0.2 0.5 0.2
v -0.2 0.5 0.15
v -0.2 0.6 0.15
v -0.15 0.5 0.15
v 0.15 0.5 0.15
v 0.2 0.5 0.15
v 0.2 0.6 0.15
v -0.25 0.8 -0.15
v -0.25 1.15 -0.15
v -0.2 0.05 -0.15
v -0.2 0.5 -0.15
v -0.15 0.05 -0.15
v -0.15 0.5 -0.15
v 0.15 0.05 -0.15
v 0.15 0.5 -0.15
v 0.2 0.05 -0.15
v 0.2 0.5 -0.15
v 0.25 0.8 -0.15
v 0.25 1.15 -0.15
v -0.2 0.6 -0.2
v -0.2 0.8 -0.2
v -0.15 0.6 -0.2
v -0.15 0.8 -0.2
v 0.15 0.6 -0.2
v 0.15 0.8 -0.2
v 0.2 0.6 -0.2
v 0.2 0.8 -0.2
v -0.2 0.5 0.2
v -0.2 0.6 0.2
v -0.15 0.5 0.2
v 0.15 0.5 0.2
v 0.2 0.5 0.2
v 0.2 0.6 0.2
v -0.2 0.05 0.15
v -0.2 0.5 0.15
v -0.15 0.05 0.15
v -0.15 0.5 0.15
v 0.15 0.05 0.15
v 0.15 0.5 0.15
v 0.2 0.05 0.15
v 0.2 0.5 0.15
v -0.2 0.6 -0.15
v -0.2 0.65 -0.15
v -0.15 0.5 -0.15
v -0.15 0.55 -0.15
v 0.15 0.5 -0.15
v 0.15 0.55 -0.15
v 0.2 0.6 -0.15
v 0.2 0.65 -0.15
v -0.25 0.5 -0.2
v -0.25 0.6 -0.2
v -0.25 0.8 -0.2
v -0.25 1.15 -0.2
v -0.2 0.05 -0.2
v -0.2 0.5 -0.2
v -0.2 0.55 -0.2
v -0.2 0.6 -0.2
v -0.2 0.8 -0.2
v -0.2 1.1 -0.2
v -0.15 0.05 -0.2
v -0.15 0.55 -0.2
v -0.15 0.8 -0.2
v -0.15 0.85 -0.2
v -0.15 0.9 -0.2
v -0.15 1.05 -0.2
v 0.15 0.05 -0.2
v 0.15 0.55 -0.2
v 0.15 0.8 -0.2
v 0.15 0.85 -0.2
v 0.15 0.9 -0.2
v 0.15 1.05 -0.2
v 0.2 0.05 -0.2
v 0.2 0.5 -0.2
v 0.2 0.55 -0.2
v 0.2 0.6 -0.2
v 0.2 0.8 -0.2
v 0.2 1.1 -0.2
v 0.25 0.5 -0.2
v 0.25 0.6 -0.2
v 0.25 0.8 -0.2
v 0.25 1.15 -0.2
v -0.2 0.55 -0.25
v -0.2 1.1 -0.25
v -0.15 0.6 -0.25
v -0.15 0.85 -0.25
v -0.15 0.9 -0.25
v -0.15 1.05 -0.25
v 0.15 0.6 -0.25
v 0.15 0.85 -0.25
v 0.15 0.9 -0.25
v 0.15 1.05 -0.25
v 0.2 0.55 -0.25
v 0.2 1.1 -0.25
v -0.2 0.05 0.2
v -0.15 0.05 0.2
v 0.15 0.05 0.2
v 0.2 0.05 0.2
v -0.2 0.05 0.15
v -0.15 0.05 0.15
v 0.15 0.05 0.15
v 0.2 0.05 0.15
v -0.2 0.05 -0.15
v -0.15 0.05 -0.15
v 0.15 0.05 -0.15
v 0.2 0.05 -0.15
v -0.2 0.05 -0.2
v -0.15 0.05 -0.2
v 0.15 0.05 -0.2
v 0.2 0.05 -0.2
v -0.25 0.5 0.25
v 0.25 0.5 0.25
v -0.2 0.5 0.2
v -0.15 0.5 0.2
v 0.15 0.5 0.2
v 0.2 0.5 0.2
v -0.2 0.5 0.15
v -0.15 0.5 0.15
v 0.15 0.5 0.15
v 0.2 0.5 0.15
v -0.2 0.5 -0.15
v -0.15 0.5 -0.15
v 0.15 0.5 -0.15
v 0.2 0.5 -0.15
v -0.25 0.5 -0.2
v -0.2 0.5 -0.2
v 0.2 0.5 -0.2
v 0.25 0.5 -0.2
v -0.15 0.55 -0.15
v 0.15 0.55 -0.15
v -0.2 0.55 -0.2
v -0.15 0.55 -0.2
v 0.15 0.55 -0.2
v 0.2 0.55 -0.2
v -0.2 0.55 -0.25
v 0.2 0.55 -0.25
v -0.2 0.6 0.2
v 0.2 0.6 0.2
v -0.2 0.6 0.15
v 0.2 0.6 0.15
v -0.25 0.8 -0.15
v 0.25 0.8 -0.15
v -0.25 0.8 -0.2
v -0.2 0.8 -0.2
v -0.15 0.8 -0.2
v 0.15 0.8 -0.2
v 0.2 0.8 -0.2
v 0.25 0.8 -0.2
v -0.15 0.85 -0.2
v 0.15 0.85 -0.2
v -0.15 0.85 -0.25
v 0.15 0.85 -0.25
v -0.15 1.05 -0.2
v 0.15 1.05 -0.2
v -0.15 1.05 -0.25
v 0.15 1.05 -0.25
v -0.2 0.5 0.2
v -0.15 0.5 0.2
v 0.15 0.5 0.2
v 0.2 0.5 0.2
v -0.2 0.5 0.15
v -0.15 0.5 0.15
v 0.15 0.5 0.15
v 0.2 0.5 0.15
v -0.25 0.6 0.25
v -0.2 0.6 0.25
v 0.2 0.6 0.25
v 0.25 0.6 0.25
v -0.2 0.6 -0.15
v 0.2 0.6 -0.15
v -0.25 0.6 -0.2
v -0.2 0.6 -0.2
v -0.15 0.6 -0.2
v 0.15 0.6 -0.2
v 0.2 0.6 -0.2
v 0.25 0.6 -0.2
v -0.15 0.6 -0.25
v 0.15 0.6 -0.25
v -0.2 0.65 0.25
v 0.2 0.65 0.25
v -0.2 0.65 -0.15
v 0.2 0.65 -0.15
v -0.15 0.9 -0.2
v 0.15 0.9 -0.2
v -0.15 0.9 -0.25
v 0.15 0.9 -0.25
v -0.2 1.1 -0.2
v 0.2 1.1 -0.2
v -0.2 1.1 -0.25
v 0.2 1.1 -0.25
v -0.25 1.15 -0.15
v 0.25 1.15 -0.15
v -0.25 1.15 -0.2
v 0.25 1.15 -0.2

# faces
f 3/1/1 2/1/1 1/1/1
f 4/1/1 2/1/1 3/1/1
f 7/2/1 6/2/1 5/2/1
f 8/2/1 6/2/1 7/2/1
f 13/1/1 10/1/1 9/1/1
f 14/1/1 10/1/1 13/1/1
f 15/1/1 12/1/1 11/1/1
f 16/1/1 12/1/1 15/1/1
f 21/1/1 18/1/1 17/1/1
f 22/2/1 20/2/1 19/2/1
f 23/2/1 20/2/1 22/2/1
f 24/1/1 18/1/1 21/1/1
f 25/1/1 18/1/1 24/1/1
f 26/1/1 18/1/1 25/1/1
f 31/1/1 28/1/1 27/1/1
f 32/1/1 28/1/1 31/1/1
f 33/1/1 30/1/1 29/1/1
f 34/1/1 30/1/1 33/1/1
f 35/1/1 30/1/1 34/1/1
f 38/1/1 37/1/1 36/1/1
f 39/1/1 37/1/1 38/1/1
f 40/1/1 37/1/1 39/1/1
f 43/1/1 42/1/1 41/1/1
f 44/1/1 42/1/1 43/1/1
f 47/1/1 46/1/1 45/1/1
f 48/1/1 46/1/1 47/1/1
f 49/1/2 50/1/2 51/1/2
f 51/1/2 50/1/2 52/1/2
f 53/1/2 54/1/2 57/1/2
f 57/1/2 54/1/2 58/1/2
f 55/1/2 56/1/2 59/1/2
f 59/1/2 56/1/2 60/1/2
f 60/1/2 56/1/2 61/1/2
f 62/1/2 63/1/2 64/1/2
f 64/1/2 63/1/2 65/1/2
f 65/1/2 63/1/2 66/1/2
f 67/1/2 68/1/2 69/1/2
f 69/1/2 68/1/2 70/1/2
f 71/1/2 72/1/2 75/1/2
f 75/1/2 72/1/2 76/1/2
f 73/1/2 74/1/2 77/1/2
f 77/1/2 74/1/2 78/1/2
f 79/1/2 80/1/2 83/1/2
f 81/2/2 82/2/2 84/2/2
f 84/2/2 82/2/2 85/2/2
f 83/1/2 80/1/2 86/1/2
f 86/1/2 80/1/2 87/1/2
f 87/1/2 80/1/2 88/1/2
f 89/1/2 90/1/2 91/1/2
f 91/1/2 90/1/2 92/1/2
f 93/2/2 94/2/2 95/2/2
f 95/2/2 94/2/2 96/2/2
f 99/1/3 98/1/3 97/1/3
f 101/1/3 99/1/3 97/1/3
f 101/2/3 100/2/3 99/2/3
f 102/2/3 100/2/3 101/2/3
f 103/1/3 101/1/3 97/1/3
f 104/1/3 101/1/3 103/1/3
f 107/1/3 106/1/3 105/1/3
f 108/1/3 106/1/3 107/1/3
f 111/1/3 110/1/3 109/1/3
f 112/1/3 110/1/3 111/1/3
f 115/1/3 114/1/3 113/1/3
f 116/1/3 114/1/3 115/1/3
f 117/1/3 114/1/3 116/1/3
f 118/1/3 114/1/3 117/1/3
f 123/1/3 122/1/3 121/1/3
f 124/1/3 122/1/3 123/1/3
f 127/1/3 126/1/3 125/1/3
f 128/1/3 126/1/3 127/1/3
f 129/2/3 120/2/3 119/2/3
f 130/2/3 120/2/3 129/2/3
f 133/1/3 132/1/3 131/1/3
f 134/1/3 132/1/3 133/1/3
f 137/1/3 136/1/3 135/1/3
f 138/1/3 136/1/3 137/1/3
f 139/1/4 140/1/4 141/1/4
f 141/1/4 140/1/4 142/1/4
f 142/1/4 140/1/4 143/1/4
f 143/1/4 140/1/4 144/1/4
f 145/1/4 146/1/4 147/1/4
f 147/1/4 146/1/4 148/1/4
f 149/1/4 150/1/4 151/1/4
f 151/1/4 150/1/4 152/1/4
f 155/1/4 156/1/4 157/1/4
f 157/1/4 156/1/4 158/1/4
f 153/2/4 154/2/4 159/2/4
f 159/2/4 154/2/4 160/2/4
f 161/1/4 162/1/4 166/1/4
f 166/1/4 162/1/4 167/1/4
f 167/1/4 162/1/4 168/1/4
f 163/2/4 164/2/4 169/2/4
f 169/2/4 164/2/4 170/2/4
f 165/1/4 166/1/4 171/1/4
f 166/1/4 167/1/4 171/1/4
f 171/1/4 167/1/4 172/1/4
f 173/2/4 174/2/4 179/2/4
f 179/2/4 174/2/4 180/2/4
f 175/2/4 176/2/4 181/2/4
f 181/2/4 176/2/4 182/2/4
f 177/1/4 178/1/4 183/1/4
f 183/1/4 178/1/4 184/1/4
f 184/1/4 178/1/4 185/1/4
f 170/2/4 164/2/4 188/2/4
f 185/1/4 186/1/4 189/1/4
f 184/1/4 185/1/4 189/1/4
f 189/1/4 186/1/4 190/1/4
f 187/2/4 188/2/4 191/2/4
f 188/2/4 164/2/4 192/2/4
f 191/2/4 188/2/4 192/2/4
f 193/1/4 194/1/4 195/1/4
f 195/1/4 194/1/4 196/1/4
f 196/1/4 194/1/4 197/1/4
f 197/1/4 194/1/4 198/1/4
f 193/1/4 195/1/4 199/1/4
f 196/1/4 197/1/4 200/1/4
f 200/1/4 197/1/4 201/1/4
f 198/1/4 194/1/4 202/1/4
f 200/1/4 201/1/4 203/1/4
f 201/1/4 202/1/4 203/1/4
f 193/1/4 199/1/4 203/1/4
f 199/1/4 200/1/4 203/1/4
f 202/1/4 194/1/4 204/1/4
f 203/1/4 202/1/4 204/1/4
f 209/1/5 206/1/5 205/1/5
f 210/1/5 206/1/5 209/1/5
f 211/1/5 208/1/5 207/1/5
f 212/1/5 208/1/5 211/1/5
f 217/1/5 214/1/5 213/1/5
f 218/1/5 214/1/5 217/1/5
f 219/1/5 216/1/5 215/1/5
f 220/1/5 216/1/5 219/1/5
f 223/1/5 222/1/5 221/1/5
f 224/1/5 222/1/5 223/1/5
f 225/1/5 222/1/5 224/1/5
f 226/1/5 222/1/5 225/1/5
f 227/1/5 223/1/5 221/1/5
f 230/1/5 222/1/5 226/1/5
f 231/1/5 229/1/5 228/1/5
f 231/1/5 230/1/5 229/1/5
f 231/1/5 227/1/5 221/1/5
f 231/1/5 228/1/5 227/1/5
f 232/1/5 230/1/5 231/1/5
f 233/1/5 230/1/5 232/1/5
f 234/1/5 222/1/5 230/1/5
f 234/1/5 230/1/5 233/1/5
f 235/1/5 231/1/5 221/1/5
f 236/1/5 231/1/5 235/1/5
f 237/1/5 222/1/5 234/1/5
f 238/1/5 222/1/5 237/1/5
f 242/1/5 240/1/5 239/1/5
f 243/1/5 240/1/5 242/1/5
f 245/1/5 242/1/5 241/1/5
f 245/1/5 244/1/5 243/1/5
f 245/1/5 243/1/5 242/1/5
f 246/1/5 244/1/5 245/1/5
f 249/2/5 248/2/5 247/2/5
f 250/2/5 248/2/5 249/2/5
f 253/2/5 252/2/5 251/2/5
f 254/2/5 252/2/5 253/2/5
f 255/2/5 252/2/5 254/2/5
f 256/2/5 252/2/5 255/2/5
f 257/2/5 252/2/5 256/2/5
f 258/2/5 252/2/5 257/2/5
f 261/1/5 260/1/5 259/1/5
f 262/1/5 260/1/5 261/1/5
f 265/1/5 264/1/5 263/1/5
f 266/1/5 264/1/5 265/1/5
f 267/1/6 268/1/6 271/1/6
f 271/1/6 268/1/6 272/1/6
f 269/1/6 270/1/6 273/1/6
f 273/1/6 270/1/6 274/1/6
f 275/1/6 276/1/6 279/1/6
f 277/1/6 278/1/6 280/1/6
f 275/1/6 279/1/6 281/1/6
f 279/1/6 280/1/6 281/1/6
f 281/1/6 280/1/6 282/1/6
f 282/1/6 280/1/6 283/1/6
f 283/1/6 280/1/6 284/1/6
f 280/1/6 278/1/6 285/1/6
f 284/1/6 280/1/6 285/1/6
f 285/1/6 278/1/6 286/1/6
f 283/1/6 284/1/6 287/1/6
f 287/1/6 284/1/6 288/1/6
f 289/2/6 290/2/6 291/2/6
f 291/2/6 290/2/6 292/2/6
f 293/1/6 294/1/6 295/1/6
f 295/1/6 294/1/6 296/1/6
f 297/1/6 298/1/6 299/1/6
f 299/1/6 298/1/6 300/1/6
f 301/2/6 302/2/6 303/2/6
f 303/2/6 302/2/6 304/2/6
