# MagicaVoxel @ Ephtracy

# group
o fridge

# material
mtllib obj-10-fridge.mtl
usemtl palette

# normals
vn -1 0 0
vn 1 0 0
vn 0 0 1
vn 0 0 -1
vn 0 -1 0
vn 0 1 0

# texcoords
vt 0.970703 0.5
vt 0.974609 0.5
vt 0.978516 0.5

# verts
v -0.55 0.1 0.4
v -0.55 0.1 0.3
v -0.55 0.1 0.25
v -0.55 0.1 -0.5
v -0.55 1.4 0.4
v -0.55 1.4 0.3
v -0.55 1.45 0.4
v -0.55 1.45 0.3
v -0.55 2 0.4
v -0.55 2 0.3
v -0.55 2 0.25
v -0.55 2 -0.5
v -0.5 0 0.3
v -0.5 0 -0.45
v -0.5 0.1 0.3
v -0.5 0.1 0.25
v -0.5 0.1 -0.45
v -0.5 1.4 0.35
v -0.5 1.4 0.3
v -0.5 1.45 0.35
v -0.5 1.45 0.3
v -0.5 1.95 0.3
v -0.5 1.95 0.25
v 0.3 0.5 0.5
v 0.3 0.5 0.4
v 0.3 0.65 0.45
v 0.3 0.65 0.4
v 0.3 1.1 0.45
v 0.3 1.1 0.4
v 0.3 1.25 0.5
v 0.3 1.25 0.4
v 0.3 1.55 0.5
v 0.3 1.55 0.4
v 0.3 1.65 0.45
v 0.3 1.65 0.4
v 0.3 1.8 0.45
v 0.3 1.8 0.4
v 0.3 1.85 0.5
v 0.3 1.85 0.4
v 0.4 0.5 0.5
v 0.4 0.5 0.4
v 0.4 0.65 0.45
v 0.4 0.65 0.4
v 0.4 1.1 0.45
v 0.4 1.1 0.4
v 0.4 1.25 0.5
v 0.4 1.25 0.4
v 0.4 1.55 0.5
v 0.4 1.55 0.4
v 0.4 1.65 0.45
v 0.4 1.65 0.4
v 0.4 1.8 0.45
v 0.4 1.8 0.4
v 0.4 1.85 0.5
v 0.4 1.85 0.4
v 0.5 0 0.3
v 0.5 0 -0.45
v 0.5 0.1 0.3
v 0.5 0.1 0.25
v 0.5 0.1 -0.45
v 0.5 1.4 0.35
v 0.5 1.4 0.3
v 0.5 1.45 0.35
v 0.5 1.45 0.3
v 0.5 1.95 0.3
v 0.5 1.95 0.25
v 0.55 0.1 0.4
v 0.55 0.1 0.3
v 0.55 0.1 0.25
v 0.55 0.1 -0.5
v 0.55 1.4 0.4
v 0.55 1.4 0.3
v 0.55 1.45 0.4
v 0.55 1.45 0.3
v 0.55 2 0.4
v 0.55 2 0.3
v 0.55 2 0.25
v 0.55 2 -0.5
v 0.3 0.5 0.5
v 0.3 1.25 0.5
v 0.3 1.55 0.5
v 0.3 1.85 0.5
v 0.4 0.5 0.5
v 0.4 1.25 0.5
v 0.4 1.55 0.5
v 0.4 1.85 0.5
v -0.55 0.1 0.4
v -0.55 1.4 0.4
v -0.55 1.45 0.4
v -0.55 2 0.4
v 0.3 0.5 0.4
v 0.3 0.65 0.4
v 0.3 1.1 0.4
v 0.3 1.25 0.4
v 0.3 1.55 0.4
v 0.3 1.65 0.4
v 0.3 1.8 0.4
v 0.3 1.85 0.4
v 0.4 0.5 0.4
v 0.4 0.65 0.4
v 0.4 1.1 0.4
v 0.4 1.25 0.4
v 0.4 1.55 0.4
v 0.4 1.65 0.4
v 0.4 1.8 0.4
v 0.4 1.85 0.4
v 0.55 0.1 0.4
v 0.55 1.4 0.4
v 0.55 1.45 0.4
v 0.55 2 0.4
v -0.5 1.4 0.35
v -0.5 1.45 0.35
v 0.5 1.4 0.35
v 0.5 1.45 0.35
v -0.5 0 0.3
v -0.5 0.1 0.3
v 0.5 0 0.3
v 0.5 0.1 0.3
v -0.55 0.1 0.25
v -0.55 2 0.25
v -0.5 0.1 0.25
v -0.5 1.95 0.25
v 0.5 0.1 0.25
v 0.5 1.95 0.25
v 0.55 0.1 0.25
v 0.55 2 0.25
v 0.3 0.65 0.45
v 0.3 1.1 0.45
v 0.3 1.65 0.45
v 0.3 1.8 0.45
v 0.4 0.65 0.45
v 0.4 1.1 0.45
v 0.4 1.65 0.45
v 0.4 1.8 0.45
v -0.55 0.1 0.3
v -0.55 1.4 0.3
v -0.55 1.45 0.3
v -0.55 2 0.3
v -0.5 0.1 0.3
v -0.5 1.4 0.3
v -0.5 1.45 0.3
v -0.5 1.95 0.3
v 0.5 0.1 0.3
v 0.5 1.4 0.3
v 0.5 1.45 0.3
v 0.5 1.95 0.3
v 0.55 0.1 0.3
v 0.55 1.4 0.3
v 0.55 1.45 0.3
v 0.55 2 0.3
v -0.5 0 -0.45
v -0.5 0.1 -0.45
v 0.5 0 -0.45
v 0.5 0.1 -0.45
v -0.55 0.1 -0.5
v -0.55 2 -0.5
v 0.55 0.1 -0.5
v 0.55 2 -0.5
v -0.5 0 0.3
v 0.5 0 0.3
v -0.5 0 -0.45
v 0.5 0 -0.45
v -0.55 0.1 0.4
v 0.55 0.1 0.4
v -0.55 0.1 0.3
v -0.5 0.1 0.3
v 0.5 0.1 0.3
v 0.55 0.1 0.3
v -0.55 0.1 0.25
v -0.5 0.1 0.25
v 0.5 0.1 0.25
v 0.55 0.1 0.25
v -0.5 0.1 -0.45
v 0.5 0.1 -0.45
v -0.55 0.1 -0.5
v 0.55 0.1 -0.5
v 0.3 0.5 0.5
v 0.4 0.5 0.5
v 0.3 0.5 0.4
v 0.4 0.5 0.4
v 0.3 1.1 0.45
v 0.4 1.1 0.45
v 0.3 1.1 0.4
v 0.4 1.1 0.4
v -0.55 1.45 0.4
v 0.55 1.45 0.4
v -0.5 1.45 0.35
v 0.5 1.45 0.35
v -0.55 1.45 0.3
v -0.5 1.45 0.3
v 0.5 1.45 0.3
v 0.55 1.45 0.3
v 0.3 1.55 0.5
v 0.4 1.55 0.5
v 0.3 1.55 0.4
v 0.4 1.55 0.4
v 0.3 1.8 0.45
v 0.4 1.8 0.45
v 0.3 1.8 0.4
v 0.4 1.8 0.4
v 0.3 0.65 0.45
v 0.4 0.65 0.45
v 0.3 0.65 0.4
v 0.4 0.65 0.4
v 0.3 1.25 0.5
v 0.4 1.25 0.5
v 0.3 1.25 0.4
v 0.4 1.25 0.4
v -0.55 1.4 0.4
v 0.55 1.4 0.4
v -0.5 1.4 0.35
v 0.5 1.4 0.35
v -0.55 1.4 0.3
v -0.5 1.4 0.3
v 0.5 1.4 0.3
v 0.55 1.4 0.3
v 0.3 1.65 0.45
v 0.4 1.65 0.45
v 0.3 1.65 0.4
v 0.4 1.65 0.4
v 0.3 1.85 0.5
v 0.4 1.85 0.5
v 0.3 1.85 0.4
v 0.4 1.85 0.4
v -0.5 1.95 0.3
v 0.5 1.95 0.3
v -0.5 1.95 0.25
v 0.5 1.95 0.25
v -0.55 2 0.4
v 0.55 2 0.4
v -0.55 2 0.3
v 0.55 2 0.3
v -0.55 2 0.25
v 0.55 2 0.25
v -0.55 2 -0.5
v 0.55 2 -0.5

# faces
f 5/1/1 2/1/1 1/1/1
f 6/1/1 2/1/1 5/1/1
f 9/1/1 8/1/1 7/1/1
f 10/1/1 8/1/1 9/1/1
f 11/1/1 4/1/1 3/1/1
f 12/1/1 4/1/1 11/1/1
f 15/2/1 14/2/1 13/2/1
f 16/2/1 14/2/1 15/2/1
f 17/2/1 14/2/1 16/2/1
f 19/3/1 16/3/1 15/3/1
f 20/3/1 19/3/1 18/3/1
f 21/3/1 16/3/1 19/3/1
f 21/3/1 19/3/1 20/3/1
f 22/3/1 16/3/1 21/3/1
f 23/3/1 16/3/1 22/3/1
f 26/2/1 25/2/1 24/2/1
f 27/2/1 25/2/1 26/2/1
f 28/2/1 26/2/1 24/2/1
f 30/2/1 28/2/1 24/2/1
f 30/2/1 29/2/1 28/2/1
f 31/2/1 29/2/1 30/2/1
f 34/2/1 33/2/1 32/2/1
f 35/2/1 33/2/1 34/2/1
f 36/2/1 34/2/1 32/2/1
f 38/2/1 36/2/1 32/2/1
f 38/2/1 37/2/1 36/2/1
f 39/2/1 37/2/1 38/2/1
f 40/2/2 41/2/2 42/2/2
f 42/2/2 41/2/2 43/2/2
f 40/2/2 42/2/2 44/2/2
f 40/2/2 44/2/2 46/2/2
f 44/2/2 45/2/2 46/2/2
f 46/2/2 45/2/2 47/2/2
f 48/2/2 49/2/2 50/2/2
f 50/2/2 49/2/2 51/2/2
f 48/2/2 50/2/2 52/2/2
f 48/2/2 52/2/2 54/2/2
f 52/2/2 53/2/2 54/2/2
f 54/2/2 53/2/2 55/2/2
f 56/2/2 57/2/2 58/2/2
f 58/2/2 57/2/2 59/2/2
f 59/2/2 57/2/2 60/2/2
f 58/3/2 59/3/2 62/3/2
f 61/3/2 62/3/2 63/3/2
f 62/3/2 59/3/2 64/3/2
f 63/3/2 62/3/2 64/3/2
f 64/3/2 59/3/2 65/3/2
f 65/3/2 59/3/2 66/3/2
f 67/1/2 68/1/2 71/1/2
f 71/1/2 68/1/2 72/1/2
f 73/1/2 74/1/2 75/1/2
f 75/1/2 74/1/2 76/1/2
f 69/1/2 70/1/2 77/1/2
f 77/1/2 70/1/2 78/1/2
f 83/2/3 80/2/3 79/2/3
f 84/2/3 80/2/3 83/2/3
f 85/2/3 82/2/3 81/2/3
f 86/2/3 82/2/3 85/2/3
f 91/1/3 88/1/3 87/1/3
f 92/1/3 88/1/3 91/1/3
f 93/1/3 88/1/3 92/1/3
f 94/1/3 88/1/3 93/1/3
f 95/1/3 90/1/3 89/1/3
f 96/1/3 90/1/3 95/1/3
f 97/1/3 90/1/3 96/1/3
f 98/1/3 90/1/3 97/1/3
f 99/1/3 91/1/3 87/1/3
f 100/1/3 93/1/3 92/1/3
f 101/1/3 93/1/3 100/1/3
f 102/1/3 88/1/3 94/1/3
f 103/1/3 95/1/3 89/1/3
f 104/1/3 97/1/3 96/1/3
f 105/1/3 97/1/3 104/1/3
f 106/1/3 90/1/3 98/1/3
f 107/1/3 101/1/3 100/1/3
f 107/1/3 99/1/3 87/1/3
f 107/1/3 102/1/3 101/1/3
f 107/1/3 100/1/3 99/1/3
f 108/1/3 88/1/3 102/1/3
f 108/1/3 102/1/3 107/1/3
f 109/1/3 106/1/3 105/1/3
f 109/1/3 105/1/3 104/1/3
f 109/1/3 103/1/3 89/1/3
f 109/1/3 104/1/3 103/1/3
f 110/1/3 90/1/3 106/1/3
f 110/1/3 106/1/3 109/1/3
f 113/3/3 112/3/3 111/3/3
f 114/3/3 112/3/3 113/3/3
f 117/2/3 116/2/3 115/2/3
f 118/2/3 116/2/3 117/2/3
f 121/1/3 120/1/3 119/1/3
f 122/1/3 120/1/3 121/1/3
f 124/1/3 120/1/3 122/1/3
f 125/1/3 124/1/3 123/1/3
f 126/1/3 120/1/3 124/1/3
f 126/1/3 124/1/3 125/1/3
f 127/2/4 128/2/4 131/2/4
f 131/2/4 128/2/4 132/2/4
f 129/2/4 130/2/4 133/2/4
f 133/2/4 130/2/4 134/2/4
f 135/1/4 136/1/4 139/1/4
f 139/1/4 136/1/4 140/1/4
f 137/1/4 138/1/4 141/1/4
f 141/1/4 138/1/4 142/1/4
f 142/1/4 138/1/4 146/1/4
f 143/1/4 144/1/4 147/1/4
f 147/1/4 144/1/4 148/1/4
f 145/1/4 146/1/4 149/1/4
f 146/1/4 138/1/4 150/1/4
f 149/1/4 146/1/4 150/1/4
f 151/2/4 152/2/4 153/2/4
f 153/2/4 152/2/4 154/2/4
f 155/1/4 156/1/4 157/1/4
f 157/1/4 156/1/4 158/1/4
f 161/2/5 160/2/5 159/2/5
f 162/2/5 160/2/5 161/2/5
f 165/1/5 164/1/5 163/1/5
f 166/1/5 164/1/5 165/1/5
f 167/1/5 164/1/5 166/1/5
f 168/1/5 164/1/5 167/1/5
f 173/1/5 170/1/5 169/1/5
f 174/1/5 172/1/5 171/1/5
f 175/1/5 173/1/5 169/1/5
f 175/1/5 174/1/5 173/1/5
f 176/1/5 172/1/5 174/1/5
f 176/1/5 174/1/5 175/1/5
f 179/2/5 178/2/5 177/2/5
f 180/2/5 178/2/5 179/2/5
f 183/2/5 182/2/5 181/2/5
f 184/2/5 182/2/5 183/2/5
f 187/1/5 186/1/5 185/1/5
f 188/1/5 186/1/5 187/1/5
f 189/1/5 187/1/5 185/1/5
f 190/1/5 187/1/5 189/1/5
f 191/1/5 186/1/5 188/1/5
f 192/1/5 186/1/5 191/1/5
f 195/2/5 194/2/5 193/2/5
f 196/2/5 194/2/5 195/2/5
f 199/2/5 198/2/5 197/2/5
f 200/2/5 198/2/5 199/2/5
f 201/2/6 202/2/6 203/2/6
f 203/2/6 202/2/6 204/2/6
f 205/2/6 206/2/6 207/2/6
f 207/2/6 206/2/6 208/2/6
f 209/1/6 210/1/6 211/1/6
f 211/1/6 210/1/6 212/1/6
f 209/1/6 211/1/6 213/1/6
f 213/1/6 211/1/6 214/1/6
f 212/1/6 210/1/6 215/1/6
f 215/1/6 210/1/6 216/1/6
f 217/2/6 218/2/6 219/2/6
f 219/2/6 218/2/6 220/2/6
f 221/2/6 222/2/6 223/2/6
f 223/2/6 222/2/6 224/2/6
f 225/3/6 226/3/6 227/3/6
f 227/3/6 226/3/6 228/3/6
f 229/1/6 230/1/6 231/1/6
f 231/1/6 230/1/6 232/1/6
f 233/1/6 234/1/6 235/1/6
f 235/1/6 234/1/6 236/1/6
